<?xml version="1.0" encoding="utf-8"?>
<!-- Generator: Adobe Illustrator 27.4.0, SVG Export Plug-In . SVG Version: 6.00 Build 0)  -->
<svg version="1.1" id="Layer_1" xmlns="http://www.w3.org/2000/svg" xmlns:xlink="http://www.w3.org/1999/xlink" x="0px" y="0px"
	 viewBox="0 0 1024 1024" style="enable-background:new 0 0 1024 1024;" xml:space="preserve">
<style type="text/css">
	.st0{fill:#622A9E;}
	.st1{fill:#A764AD;}
	.st2{display:none;fill:#A764AD;}
	.st3{font-family:'Montserrat-Bold';}
	.st4{font-size:173.5042px;}
	.st5{letter-spacing:-3.9;}
</style>
<path class="st0" d="M363.6,356.3c4-19.8,18.8-31,38.5-33c22.7-2.2,45,4.6,65.9,12.4c0,0,2.1,0.8,2.1,0.8l1.3,0.4
	c12.6,3.3,21.4-12.3,24-24.2c11.7-55-21.3-138.1-71.9-164.3c-32.7-16.9-86-24.4-112.8,4.9c-17.4,20.5-17.5,51.8-15.6,77.9
	c5.8,76.3,34.1,150.2,62.2,221.7c15.8,40,32.7,79.7,55.4,116.2c7.5,11.4,19.8,32.9,35,31.6c1.5-0.2,3.2-0.7,5-1.6
	c0,0-1.1,0.8-1.1,0.8c26.5-19.2,39.5-66.7,48.3-97.6c3.1-11.3,6.7-26.7,10.4-37.6c-1.9,12.9-2.6,25.8-4.2,38.7
	c-4.1,32.9-9.3,67-27,96c-3.9,6.1-8.5,12-14.4,17.1c-4.9,3.6-11.3,6.4-17.7,7.1c-24,2.7-42.7-16.5-56.3-33.5
	c-11.3-13.7-21.5-28.3-30.9-43.3c-21.6-34.6-39.3-71.4-56.1-108.2c-24.4-53.3-45.5-109.1-55.6-167.3c-7.8-47.7-12.4-101.8,17-143.5
	c41.1-56.9,125.6-52.6,180.7-20c49.9,29.4,77.5,89.3,83.5,145c2.4,25.1,1.1,52-9.5,75.5c-7.9,16.8-24.4,32.8-44.4,31.2
	c-6-0.5-11.3-2.4-16.2-5.4c-3.5-2-7.3-4.1-10.9-5.8c-14.5-7.1-29.8-13.6-46-14.9C384.6,332.1,371.1,339.8,363.6,356.3L363.6,356.3z"
	/>
<path class="st1" d="M632.2,394.3c-38.2,33.5-59.3,83.8-60.9,134.1c-0.6,17.1,0.6,34.8,7.8,50.2c4.3,9.2,11.6,17.6,21.9,18.7
	c14.1,1.4,28.1-9,38.4-19.2c13.9-13.9,24.5-30.8,33.9-48.1c9.6-18,18-36.8,25.2-55.9c7.2-19.2,12.9-39,18-58.9
	c15.7-65.3,28-132,34.5-198.9c1-10.1,1.7-20.5,2.3-30.6c-0.1-7.1-0.7-14.4-2-21.3c-3-15.7-9.9-30.2-21.9-40.8
	c-17.2-15.8-47-21-66.1-15c-27.9,12.5-53.4,28.7-79.8,44.5c-10.3,5.9-21,11.9-32.7,15.2c-21.8,6.5-39.8-2.1-54.6-17.8
	c9.3,6.6,19.5,12.2,30.8,13.1c18.8,1.3,34.5-11.1,49-21.7c12.3-9.3,24.5-19,37.1-28c13-9.3,26.5-18.1,40.7-25.8
	c10.6-4.6,21.3-5.9,32.4-6c57.4,0.9,93.2,41.9,96.8,97.5c0.1,0.6,0.1,1.3,0.1,2c0,0,0.2,4.3,0.2,4.3s-0.1,3.7-0.1,3.7
	c-1.1,38.4-5.2,76.6-10.9,114.5c-12.9,77.8-27.5,157.6-65.4,227.8c-8.1,15.3-16.9,30.3-27.5,43.9c-13.1,16.6-27.5,31.6-47.2,41
	c-23.7,11.4-50.1,7.9-66.1-14.3c-18.3-26.2-16.9-60.7-11.4-90.3c6.5-33.4,21.7-65.4,44.6-90.6C609,411.2,619.8,401.5,632.2,394.3
	L632.2,394.3z"/>
<g>
	<text transform="matrix(1.0295 0 0 1 254.3013 828.7617)" class="st2 st3 st4 st5">MERG</text>
	<g id="Emerge_00000134956632795520829620000006432169743805269125_">
		<path class="st1" d="M924.6,777.4h-89.9c3.3,15,15.9,24.3,34,24.3c12.6,0,21.6-3.8,29.8-11.7l18.3,20.2
			c-11,12.8-27.6,19.5-49,19.5c-41.1,0-67.8-26.3-67.8-62.2c0-36.2,27.2-62.2,63.4-62.2c34.9,0,61.9,23.8,61.9,62.7
			C925.3,770.7,924.8,774.5,924.6,777.4z M834.3,757h58.5c-2.4-15.3-13.7-25.2-29.2-25.2C848,731.8,836.7,741.5,834.3,757z"/>
		<path class="st1" d="M757.8,766.1h26.4v49.3c-13.8,10.1-32.7,15.4-50.5,15.4c-39.3,0-68.2-26.2-68.2-62.8s28.9-62.8,68.8-62.8
			c22,0,40.2,7.3,52.3,21L768,742.9c-9.1-9.4-19.6-13.7-32.3-13.7c-24.3,0-40.9,15.8-40.9,38.9c0,22.7,16.6,38.9,40.5,38.9
			c7.9,0,15.2-1.4,22.5-5.2V766.1z"/>
		<path class="st1" d="M622,828.8l-24.1-33.8h-1.4h-25.2v33.8h-28.9V707.3h54.1c33.4,0,54.3,16.8,54.3,44.1
			c0,18.2-9.5,31.6-25.7,38.3l28,39H622z M594.8,730.2h-23.6v42.3h23.6c17.7,0,26.6-8,26.6-21.2C621.5,738,612.5,730.2,594.8,730.2z
			"/>
		<path class="st1" d="M523.7,806.2v22.6h-96.8V707.3h94.5v22.6h-65.7v26.4h58v21.9h-58v28.1H523.7z"/>
		<path class="st1" d="M378.7,828.8l-0.2-72.9l-36.8,60h-13l-36.6-58.5v71.3H265V707.3h23.9l46.8,75.5l46.1-75.5h23.8l0.4,121.5
			H378.7z"/>
		<path class="st1" d="M247.9,777.4h-88.6c3.3,15,15.7,24.3,33.5,24.3c12.4,0,21.3-3.8,29.4-11.7l18.1,20.2
			c-10.9,12.8-27.2,19.5-48.3,19.5c-40.5,0-66.9-26.3-66.9-62.2c0-36.2,26.8-62.2,62.5-62.2c34.4,0,61,23.8,61,62.7
			C248.6,770.7,248.1,774.5,247.9,777.4z M158.8,757h57.7c-2.4-15.3-13.5-25.2-28.7-25.2C172.3,731.8,161.2,741.5,158.8,757z"/>
	</g>
</g>
<g>
	<path class="st0" d="M126.6,870.2h28.9c22.7,0,38.1,14.3,38.1,34.8s-15.3,34.8-38.1,34.8h-28.9V870.2z M155.1,933.5
		c18.9,0,31.1-11.7,31.1-28.5c0-16.7-12.2-28.5-31.1-28.5h-21v56.9H155.1z"/>
	<path class="st0" d="M258.1,933.5v6.4h-50.3v-69.7h48.7v6.4h-41.2v24.8h36.8v6.3h-36.8v25.9H258.1z"/>
	<path class="st0" d="M332.7,870.2v69.7h-6.2l-45.7-56.5v56.5h-7.5v-69.7h6.2l45.8,56.5v-56.5H332.7z"/>
	<path class="st0" d="M367.1,876.6h-25v-6.4h57.5v6.4h-25v63.3h-7.5V876.6z"/>
	<path class="st0" d="M450,921.3h-39.6l-8.5,18.6h-7.8l32.5-69.7h7.4l32.5,69.7h-7.9L450,921.3z M447.3,915.3l-17.1-37.4l-17.1,37.4
		H447.3z"/>
	<path class="st0" d="M475.7,870.2h7.5v63.3h39.8v6.4h-47.3V870.2z"/>
	<path class="st0" d="M550.3,931.4l2.9-5.7c5.1,4.9,14.1,8.5,23.5,8.5c13.3,0,19.1-5.5,19.1-12.3c0-19.1-43.8-7.4-43.8-33.1
		c0-10.3,8.1-19.1,26.2-19.1c8,0,16.3,2.3,22,6.2l-2.5,5.9c-6.1-3.9-13.2-5.8-19.5-5.8c-13,0-18.8,5.7-18.8,12.6
		c0,19.1,43.8,7.6,43.8,33c0,10.3-8.3,19-26.5,19C566,940.5,555.5,936.8,550.3,931.4z"/>
	<path class="st0" d="M629.8,876.6h-25v-6.4h57.5v6.4h-25v63.3h-7.5V876.6z"/>
	<path class="st0" d="M669.7,910.1v-39.9h7.5v39.6c0,16.5,7.9,24.1,21.7,24.1c13.9,0,21.8-7.6,21.8-24.1v-39.6h7.3v39.9
		c0,20-11,30.4-29.1,30.4C680.7,940.5,669.7,930.1,669.7,910.1z"/>
	<path class="st0" d="M748.2,870.2h28.9c22.7,0,38.1,14.3,38.1,34.8s-15.3,34.8-38.1,34.8h-28.9V870.2z M776.7,933.5
		c18.9,0,31.1-11.7,31.1-28.5c0-16.7-12.2-28.5-31.1-28.5h-21v56.9H776.7z"/>
	<path class="st0" d="M829.5,870.2h7.5v69.7h-7.5V870.2z"/>
	<path class="st0" d="M851.3,905c0-20.3,15.8-35.4,37.4-35.4c21.3,0,37.3,15,37.3,35.4s-15.9,35.4-37.3,35.4
		C867.2,940.5,851.3,925.4,851.3,905z M918.4,905c0-16.6-12.7-28.9-29.7-28.9c-17.2,0-30,12.2-30,28.9c0,16.6,12.8,28.9,30,28.9
		C905.7,933.9,918.4,921.7,918.4,905z"/>
</g>
</svg>
