<svg xmlns="http://www.w3.org/2000/svg" viewBox="0 0 1200 675" role="img" aria-labelledby="title desc">
  <title id="title">Personalised smile and implant care placeholder</title>
  <desc id="desc">Abstract dental studio scene in purple, teal, and coral.</desc>
  <rect width="1200" height="675" fill="#eef7f4"/>
  <circle cx="1010" cy="110" r="190" fill="#6323a5" opacity=".14"/>
  <circle cx="120" cy="570" r="220" fill="#006f72" opacity=".14"/>
  <rect x="110" y="105" width="980" height="465" rx="34" fill="#ffffff"/>
  <path d="M300 210c-66 0-116 54-116 124 0 96 86 176 116 176 31 0 50-60 84-60 35 0 54 60 86 60 30 0 116-80 116-176 0-70-50-124-116-124-36 0-60 16-86 44-25-28-49-44-84-44z" fill="none" stroke="#6323a5" stroke-width="22" stroke-linecap="round" stroke-linejoin="round"/>
  <path d="M674 252h270M674 336h330M674 420h214" stroke="#006f72" stroke-width="22" stroke-linecap="round"/>
  <circle cx="645" cy="252" r="12" fill="#f46b4f"/>
  <circle cx="645" cy="336" r="12" fill="#f4c34f"/>
  <circle cx="645" cy="420" r="12" fill="#6323a5"/>
</svg>
