<svg xmlns="http://www.w3.org/2000/svg" viewBox="0 0 720 420"><rect width="720" height="420" fill="#fff7dd"/><circle cx="210" cy="170" r="76" fill="#f4c34f"/><circle cx="510" cy="170" r="76" fill="#ddf5ee"/><path d="M250 290c58 42 126 62 204 62" stroke="#6323a5" stroke-width="20" stroke-linecap="round" fill="none"/><path d="M338 128c-38 0-66 30-66 70 0 52 48 96 66 96 19 0 30-32 50-32s32 32 51 32c18 0 66-44 66-96 0-40-28-70-66-70-20 0-34 8-51 25-16-17-30-25-50-25z" fill="#fff" stroke="#006f72" stroke-width="12" stroke-linejoin="round"/></svg>
