<svg xmlns="http://www.w3.org/2000/svg" viewBox="0 0 720 420"><rect width="720" height="420" fill="#eef7f4"/><path d="M170 110h380v220H170z" rx="24" fill="#fff"/><path d="M280 120c-48 0-84 38-84 88 0 68 62 124 84 124 23 0 38-42 64-42s41 42 65 42c22 0 84-56 84-124 0-50-36-88-84-88-28 0-47 13-65 34-18-21-37-34-64-34z" fill="none" stroke="#6323a5" stroke-width="15" stroke-linecap="round" stroke-linejoin="round"/><path d="M344 286v78" stroke="#006f72" stroke-width="18" stroke-linecap="round"/><circle cx="344" cy="374" r="20" fill="#f46b4f"/></svg>
