<?xml version="1.0" encoding="UTF-8"?>
<svg id="Layer_1" data-name="Layer 1" xmlns="http://www.w3.org/2000/svg" viewBox="0 0 1334.88 393.67">
  <defs>
    <style>
      .cls-1 {
        fill: #8a8a8a;
      }

      .cls-1, .cls-2 {
        stroke-width: 0px;
      }

      .cls-2 {
        fill: #833178;
      }
    </style>
  </defs>
  <path class="cls-2" d="M141.65,198.02c-32.51,0-58.87-26.36-58.87-58.87h0c0-32.51,26.36-58.87,58.87-58.87h149.01c2.3,0,3.76-2.48,2.62-4.47C267.59,30.8,215.38,0,155.13,0,69.46,0,0,62.3,0,139.15s69.46,139.15,155.13,139.15c60.24,0,112.45-30.8,138.15-75.8,1.14-1.99-.32-4.47-2.62-4.47h-149.01Z"/>
  <circle class="cls-1" cx="242.6" cy="139.15" r="51.08"/>
  <path class="cls-1" d="M486.5,66.23v145.63c0,2.28-1.86,4.14-4.14,4.14h-28.59c-1.44,0-2.79-.76-3.54-2l-64.96-107.38,1.22,37.02v68.21c0,2.28-1.85,4.14-4.13,4.14h-22.43c-2.28,0-4.14-1.86-4.14-4.14V66.23c0-2.28,1.86-4.14,4.14-4.14h28.39c1.44,0,2.79.76,3.54,1.99l65.34,107.76-1.4-38.4v-67.21c0-2.28,1.85-4.14,4.14-4.14h22.43c2.28,0,4.14,1.86,4.14,4.14ZM617.42,62.1h-98.94c-2.28,0-4.14,1.86-4.14,4.14v145.63c0,2.28,1.86,4.14,4.14,4.14h98.94c2.28,0,4.14-1.86,4.14-4.14v-19.42c0-2.28-1.86-4.14-4.14-4.14h-72.23c-.08,0-.14-.06-.14-.14v-38.5c0-.08.06-.14.14-.14h61.99c2.28,0,4.14-1.86,4.14-4.14v-17.92c0-2.28-1.86-4.14-4.14-4.14h-61.99c-.08,0-.14-.06-.14-.14v-33.28c0-.07.06-.14.14-.14h72.23c2.28,0,4.14-1.86,4.14-4.14v-19.42c0-2.28-1.86-4.14-4.14-4.14ZM758,82.14c13.13,14.15,19.79,33.25,19.79,56.76,0,24.24-6.74,43.69-20.02,57.8-13.32,14.14-31.37,21.31-53.67,21.31-22.57,0-40.73-7.24-53.98-21.52-13.02-14.46-19.61-33.72-19.61-57.28,0-24.11,6.74-43.49,20.02-57.6,13.32-14.14,31.34-21.31,53.57-21.31,22.71,0,40.84,7.35,53.9,21.85ZM662.83,138.9c0,15.85,3.8,28.49,11.29,37.58,7.5,9.1,17.31,13.53,29.98,13.53,12.94,0,22.82-4.44,30.22-13.57,7.4-9.13,11.15-21.66,11.15-37.25s-3.86-28.4-11.47-37.36c-7.53-9.27-17.3-13.75-29.9-13.75-12.8,0-22.67,4.49-30.17,13.72-7.36,9.28-11.1,21.76-11.1,37.09ZM908.66,83.38c12.17,13.81,18.35,32.6,18.35,55.82,0,23.15-6.18,41.91-18.37,55.74-12.32,13.97-29.65,21.06-51.5,21.06h-58.1c-2.28,0-4.14-1.86-4.14-4.14V66.23c0-2.28,1.86-4.14,4.14-4.14h58.1c22.13,0,39.46,7.16,51.52,21.28ZM825.74,188.3h27.88c13.11,0,23.33-4.16,30.36-12.35,7.11-8.29,10.71-20.82,10.71-37.25,0-16.35-3.62-28.74-10.75-36.83-7.07-8.01-17.27-12.07-30.33-12.07h-27.88c-.08,0-.14.06-.14.14v98.24c0,.08.06.14.14.14ZM1046.19,62.1h-98.94c-2.28,0-4.14,1.86-4.14,4.14v145.63c0,2.28,1.86,4.14,4.14,4.14h98.94c2.28,0,4.14-1.86,4.14-4.14v-19.42c0-2.28-1.86-4.14-4.14-4.14h-72.23c-.08,0-.14-.06-.14-.14v-38.5c0-.08.06-.14.14-.14h61.99c2.28,0,4.14-1.86,4.14-4.14v-17.92c0-2.28-1.86-4.14-4.14-4.14h-61.99c-.08,0-.14-.06-.14-.14v-33.28c0-.07.06-.14.14-.14h72.23c2.28,0,4.14-1.86,4.14-4.14v-19.42c0-2.28-1.86-4.14-4.14-4.14ZM1197.82,62.1h-22.43c-2.28,0-4.14,1.86-4.14,4.14v67.21s1.4,38.4,1.4,38.4l-65.34-107.76c-.75-1.23-2.1-1.99-3.54-1.99h-28.39c-2.28,0-4.14,1.86-4.14,4.14v145.63c0,2.28,1.86,4.14,4.14,4.14h22.43c2.28,0,4.14-1.86,4.14-4.14v-68.21s-1.22-37.02-1.22-37.02l64.96,107.38c.74,1.23,2.1,2,3.54,2h28.59c2.28,0,4.14-1.86,4.14-4.14V66.23c0-2.28-1.86-4.14-4.14-4.14ZM1330.75,62.1h-109.68c-2.28,0-4.14,1.86-4.14,4.14v19.62c0,2.28,1.86,4.14,4.14,4.14h39.1c.08,0,.14.06.14.14v121.73c0,2.28,1.86,4.14,4.14,4.14h22.74c2.28,0,4.14-1.86,4.14-4.14v-121.73c0-.07.06-.14.14-.14h39.3c2.28,0,4.14-1.86,4.14-4.14v-19.62c0-2.28-1.86-4.14-4.14-4.14ZM1315.12,209.75h3.72v-5.88c.2-.04.35-.05.46-.05.49,0,.98.28,1.47.83s1.45,2.26,2.88,5.1h4.4c-1.59-2.83-2.39-4.28-2.42-4.33-.41-.67-.81-1.18-1.19-1.52-.27-.24-.69-.48-1.26-.7,1.39-.33,2.41-.86,3.06-1.59s.97-1.6.97-2.6c0-1.28-.43-2.31-1.27-3.07-.85-.76-2.22-1.15-4.12-1.15h-6.69v14.96ZM1318.84,197.39h1.76c1.01,0,1.73.17,2.15.52.42.35.63.8.63,1.35s-.22,1-.66,1.35c-.44.35-1.2.52-2.27.52h-1.61s0-3.74,0-3.74ZM1334.88,202.27c0-7.57-6.16-13.73-13.73-13.73-7.57,0-13.73,6.16-13.73,13.73s6.16,13.73,13.73,13.73c7.57,0,13.73-6.16,13.73-13.73ZM1331.38,202.27c0,5.64-4.59,10.23-10.23,10.23-5.64,0-10.23-4.59-10.23-10.23,0-5.64,4.59-10.23,10.23-10.23,5.64,0,10.23,4.59,10.23,10.23Z"/>
  <g>
    <path class="cls-1" d="M395.79,373.48l-4.99-14.09h-25.59l-4.99,14.09h-8.38l21.85-60.19h9.27l22.03,60.19h-9.18ZM380.63,330.32c-1.07-2.94-1.87-5.62-2.59-8.21h-.17c-.71,2.59-1.52,5.26-2.5,8.02l-8.11,22.74h21.4l-8.02-22.56Z"/>
    <path class="cls-1" d="M438.18,374.28c-4.91,0-9.45-.63-13.2-1.69l.98-7.85c3.83,1.52,8.2,2.4,12.66,2.4,6.96,0,13.02-2.85,13.02-10.26,0-13.55-27.2-8.2-27.2-27.38,0-9.9,7.49-17.02,21.05-17.02,3.48,0,7.49.36,10.88,1.16l-.98,7.22c-3.21-.98-6.87-1.61-10.35-1.61-8.2,0-12.13,3.75-12.13,9.37,0,12.93,27.55,8.29,27.55,27.2,0,10.79-8.83,18.45-22.29,18.45Z"/>
    <path class="cls-1" d="M481.16,374.19c-9.1,0-11.86-3.75-11.86-13.29v-25.5h-9.1v-6.24h9.1v-14.36l8.02-2.23v16.59h12.4v6.24h-12.4v22.64c0,7.32,1.43,9.28,6.33,9.28,2.05,0,4.01-.27,5.62-.71l.8,6.6c-2.58.63-6.06.98-8.91.98Z"/>
    <path class="cls-1" d="M518.78,336.29c-9.37-1.69-13.82,5.18-13.82,19.35v17.84h-8.02v-44.31h7.76c0,2.76-.27,6.87-.98,10.52h.18c1.87-6.15,6.42-12.22,15.25-11.33l-.36,7.94Z"/>
    <path class="cls-1" d="M549.56,373.48c0-3.12,0-6.33.44-8.83h-.18c-2.14,5.44-7.75,9.63-15.07,9.63s-12.3-4.82-12.3-11.95c0-9.54,9.72-15.25,26.66-15.25v-2.06c0-7.04-2.41-10.43-9.36-10.43-4.2,0-9.54,1.43-13.38,3.21l-1.52-6.33c4.28-1.79,10.17-3.22,15.96-3.22,12.39,0,16.32,5.98,16.32,15.52v16.94c0,4.19.09,8.92.27,12.76h-7.85ZM549.11,352.7c-14.54,0-18.73,4.02-18.73,8.48,0,3.83,2.67,6.77,6.78,6.77,7.13,0,11.95-7.13,11.95-14.09v-1.16Z"/>
    <path class="cls-1" d="M596.64,373.48c0-2.67.18-6.69.71-9.37h-.18c-2.59,6.06-8.02,10.17-15.6,10.17-10.17,0-13.29-6.33-13.29-14.18v-30.94h7.94v28.53c0,6.24,1.78,9.98,7.58,9.98,7.31,0,12.57-7.49,12.57-17.3v-21.22h8.03v44.31h-7.76Z"/>
    <path class="cls-1" d="M670.98,373.48v-28.45c0-6.06-1.43-10.07-7.22-10.07-6.33,0-12.39,6.68-12.39,17.48v21.04h-7.94v-28.45c0-5.62-1.16-10.07-7.22-10.07-6.77,0-12.39,7.31-12.39,17.48v21.04h-8.02v-44.31h7.76c0,2.67-.18,6.68-.63,9.36l.09.09c2.58-6.24,8.29-10.26,15.43-10.26,9.36,0,11.86,6.42,12.22,10.08,1.87-4.19,6.6-10.08,15.16-10.08s13.19,4.46,13.19,14.54v30.58h-8.02Z"/>
    <path class="cls-1" d="M714.05,373.48c0-3.12,0-6.33.44-8.83h-.17c-2.14,5.44-7.75,9.63-15.07,9.63s-12.3-4.82-12.3-11.95c0-9.54,9.72-15.25,26.66-15.25v-2.06c0-7.04-2.4-10.43-9.37-10.43-4.19,0-9.54,1.43-13.37,3.21l-1.52-6.33c4.29-1.79,10.17-3.22,15.96-3.22,12.4,0,16.32,5.98,16.32,15.52v16.94c0,4.19.09,8.92.27,12.76h-7.85ZM713.61,352.7c-14.53,0-18.72,4.02-18.72,8.48,0,3.83,2.67,6.77,6.78,6.77,7.13,0,11.95-7.13,11.95-14.09v-1.16Z"/>
    <path class="cls-1" d="M761.11,373.48v-28.53c0-6.24-1.7-9.98-7.58-9.98-7.31,0-12.57,7.48-12.57,17.3v21.22h-8.02v-44.31h7.75c0,2.67-.17,6.68-.71,9.36h.18c2.58-6.06,8.02-10.17,15.6-10.17,10.16,0,13.37,6.33,13.37,14.18v30.94h-8.02Z"/>
    <path class="cls-1" d="M808.62,373.48v-28.53c0-6.24-1.69-9.98-7.58-9.98-7.31,0-12.57,7.48-12.57,17.3v21.22h-8.02v-44.31h7.76c0,2.67-.18,6.68-.71,9.36h.17c2.59-6.06,8.02-10.17,15.6-10.17,10.17,0,13.37,6.33,13.37,14.18v30.94h-8.02Z"/>
    <path class="cls-1" d="M871.96,374.28c-18.81,0-29.87-11.06-29.87-29.42s11.06-32.37,32.37-32.37c5.88,0,11.5.98,16.68,2.58l-1.79,7.41c-4.91-1.87-10.26-2.94-15.69-2.94-16.23,0-22.83,11.41-22.83,24.07,0,14.99,8.29,23.54,22.29,23.54,4.02,0,7.41-.62,10.61-1.6v-22.74h8.12v28c-5.98,2.23-13.29,3.48-19.89,3.48Z"/>
    <path class="cls-1" d="M925.08,336.29c-9.37-1.69-13.83,5.18-13.83,19.35v17.84h-8.02v-44.31h7.76c0,2.76-.27,6.87-.98,10.52h.17c1.87-6.15,6.42-12.22,15.26-11.33l-.36,7.94Z"/>
    <path class="cls-1" d="M947.56,374.28c-12.03,0-19.88-6.95-19.88-22.56,0-13.02,8.2-23.37,21.58-23.37,11.32,0,19.97,6.25,19.97,22.21,0,13.37-8.56,23.72-21.67,23.72ZM948.54,335.05c-6.33,0-12.49,4.91-12.49,15.87s4.37,16.58,12.49,16.58c6.6,0,12.3-5.17,12.3-16.49,0-10.08-4.1-15.96-12.3-15.96Z"/>
    <path class="cls-1" d="M1005.79,373.48c0-2.67.18-6.69.71-9.37h-.17c-2.59,6.06-8.02,10.17-15.6,10.17-10.17,0-13.29-6.33-13.29-14.18v-30.94h7.94v28.53c0,6.24,1.78,9.98,7.57,9.98,7.32,0,12.57-7.49,12.57-17.3v-21.22h8.03v44.31h-7.76Z"/>
    <path class="cls-1" d="M1040.46,374.01c-2.76,0-4.9-.09-7.48-.53v22.03h-8.02v-66.34h7.75c0,2.49-.17,6.51-.71,9l.18.09c2.49-6.15,7.84-9.9,14.89-9.9,10.34,0,16.22,7.32,16.22,20.87,0,15.79-8.47,24.79-22.83,24.79ZM1045.11,334.96c-8.02,0-12.13,9.36-12.13,17.12v14.62c2.32.71,4.81,1.07,7.84,1.07,8.38,0,14.09-5.08,14.09-17.84,0-9.54-3.12-14.98-9.8-14.98Z"/>
    <path class="cls-1" d="M1104.16,373.75c-4.37,0-9.44-.18-15.33-.27v-60.19c4.37-.09,10.34-.27,17.57-.27,12.93,0,19.26,5.44,19.26,14.45,0,6.33-3.75,11.77-10.34,14v.17c7.31.98,12.22,6.42,12.22,13.83,0,8.2-5.53,18.28-23.37,18.28ZM1105.06,319.53c-2.86,0-5.71.09-8.02.18v19.53c1.69.09,3.29.09,5.44.09,9.9,0,14.62-3.92,14.62-10.52,0-5.35-2.85-9.28-12.03-9.28ZM1102.65,345.48c-.98,0-4.19,0-5.61.1v21.13c1.6.18,5.08.44,7.67.44,9.81,0,14.18-4.91,14.18-11.23,0-7.58-6.42-10.44-16.23-10.44Z"/>
    <path class="cls-1" d="M1158.35,336.29c-9.37-1.69-13.83,5.18-13.83,19.35v17.84h-8.02v-44.31h7.76c0,2.76-.27,6.87-.98,10.52h.17c1.87-6.15,6.42-12.22,15.26-11.33l-.36,7.94Z"/>
    <path class="cls-1" d="M1189.12,373.48c0-3.12,0-6.33.44-8.83h-.18c-2.13,5.44-7.75,9.63-15.06,9.63s-12.3-4.82-12.3-11.95c0-9.54,9.71-15.25,26.66-15.25v-2.06c0-7.04-2.41-10.43-9.37-10.43-4.19,0-9.54,1.43-13.37,3.21l-1.52-6.33c4.28-1.79,10.17-3.22,15.96-3.22,12.39,0,16.32,5.98,16.32,15.52v16.94c0,4.19.09,8.92.26,12.76h-7.84ZM1188.68,352.7c-14.54,0-18.73,4.02-18.73,8.48,0,3.83,2.67,6.77,6.78,6.77,7.14,0,11.95-7.13,11.95-14.09v-1.16Z"/>
    <path class="cls-1" d="M1236.17,373.48v-28.53c0-6.24-1.69-9.98-7.58-9.98-7.31,0-12.57,7.48-12.57,17.3v21.22h-8.02v-44.31h7.76c0,2.67-.18,6.68-.71,9.36h.17c2.59-6.06,8.02-10.17,15.6-10.17,10.17,0,13.37,6.33,13.37,14.18v30.94h-8.02Z"/>
    <path class="cls-1" d="M1283.08,373.48c0-2.5.18-6.42.71-9.01l-.17-.09c-2.5,5.98-7.94,9.9-14.89,9.9-10.88,0-16.32-7.94-16.32-20.87,0-15.52,8.91-24.88,22.91-24.88,2.4,0,4.82.17,7.49.44v-20.6h8.02v65.09h-7.76ZM1282.82,335.85c-2.67-.63-5.35-.98-7.85-.98-8.47,0-14.09,5.08-14.09,17.83,0,9.54,3.12,14.99,9.81,14.99,8.02,0,12.13-9.37,12.13-17.12v-14.72Z"/>
  </g>
</svg>