<svg xmlns="http://www.w3.org/2000/svg" xmlns:xlink="http://www.w3.org/1999/xlink" id="svg" width="400" height="399.5" version="1.1" viewBox="0 0 400 399.5"><g id="svgg"><path id="path0" fill="#7b40a2" fill-rule="evenodd" stroke="none" d="M319.985 1.481 C 320.482 1.577,321.201 1.573,321.583 1.473 C 321.965 1.373,321.558 1.295,320.679 1.300 C 319.800 1.304,319.488 1.386,319.985 1.481 M331.968 1.481 C 332.463 1.576,333.272 1.576,333.766 1.481 C 334.261 1.386,333.856 1.308,332.867 1.308 C 331.878 1.308,331.474 1.386,331.968 1.481 M336.563 1.874 C 336.948 1.974,337.577 1.974,337.962 1.874 C 338.347 1.773,338.032 1.691,337.263 1.691 C 336.494 1.691,336.179 1.773,336.563 1.874 M79.920 2.393 C 42.632 5.701,17.223 25.777,7.393 59.700 C -5.717 104.940,10.374 182.753,50.247 266.933 C 51.340 269.241,53.269 273.377,54.534 276.124 C 81.765 335.259,112.329 380.503,132.877 392.098 C 164.543 409.966,187.632 377.935,195.589 305.095 C 197.901 283.930,198.061 281.589,196.899 286.000 C 186.292 326.241,182.265 338.767,175.189 353.514 C 168.909 366.601,159.452 378.371,154.205 379.630 C 144.700 381.910,135.400 372.369,119.331 343.849 C 113.142 332.866,101.510 308.906,97.509 298.901 C 97.114 297.912,95.856 294.855,94.714 292.108 C 60.228 209.144,45.078 158.133,41.129 111.688 C 37.631 70.558,46.342 49.400,70.135 41.236 C 92.705 33.493,127.402 40.580,147.055 56.949 C 171.842 77.593,189.376 116.979,189.406 152.078 C 189.427 176.137,180.379 190.810,168.225 186.426 C 155.218 181.734,149.542 180.068,141.059 178.453 C 115.981 173.678,99.513 179.607,92.951 195.772 C 91.673 198.919,91.833 199.261,93.396 196.723 C 104.264 179.083,126.346 180.104,162.238 199.908 C 179.249 209.294,199.184 198.425,207.556 175.201 C 215.353 153.568,214.568 121.496,205.550 93.333 C 194.882 60.018,175.979 34.288,151.449 19.692 C 130.916 7.474,101.859 0.447,79.920 2.393 M317.388 17.869 C 317.996 17.961,318.895 17.959,319.386 17.864 C 319.878 17.769,319.381 17.694,318.282 17.697 C 317.183 17.700,316.781 17.777,317.388 17.869 M326.973 17.869 C 327.577 17.960,328.566 17.960,329.171 17.869 C 329.775 17.777,329.281 17.702,328.072 17.702 C 326.863 17.702,326.369 17.777,326.973 17.869 M211.888 61.015 C 212.273 61.115,212.902 61.115,213.287 61.015 C 213.671 60.914,213.357 60.832,212.587 60.832 C 211.818 60.832,211.503 60.914,211.888 61.015 M375.717 65.135 C 375.717 65.904,375.799 66.219,375.900 65.834 C 376.000 65.450,376.000 64.820,375.900 64.436 C 375.799 64.051,375.717 64.366,375.717 65.135 M376.133 69.930 C 376.133 70.919,376.211 71.324,376.306 70.829 C 376.401 70.335,376.401 69.525,376.306 69.031 C 376.211 68.536,376.133 68.941,376.133 69.930 M376.144 80.719 C 376.144 81.928,376.219 82.423,376.310 81.818 C 376.402 81.214,376.402 80.225,376.310 79.620 C 376.219 79.016,376.144 79.510,376.144 80.719 M375.744 87.512 C 375.744 88.721,375.819 89.216,375.911 88.611 C 376.002 88.007,376.002 87.018,375.911 86.414 C 375.819 85.809,375.744 86.304,375.744 87.512 M375.334 93.906 C 375.334 94.895,375.412 95.300,375.507 94.805 C 375.602 94.311,375.602 93.501,375.507 93.007 C 375.412 92.512,375.334 92.917,375.334 93.906 M396.531 95.105 C 396.531 96.533,396.604 97.118,396.693 96.404 C 396.781 95.689,396.781 94.520,396.693 93.806 C 396.604 93.092,396.531 93.676,396.531 95.105 M396.132 103.097 C 396.132 104.525,396.204 105.110,396.293 104.396 C 396.382 103.681,396.382 102.512,396.293 101.798 C 396.204 101.084,396.132 101.668,396.132 103.097 M374.119 105.095 C 374.119 105.864,374.201 106.179,374.301 105.794 C 374.402 105.410,374.402 104.780,374.301 104.396 C 374.201 104.011,374.119 104.326,374.119 105.095 M395.719 109.291 C 395.722 110.390,395.799 110.792,395.891 110.184 C 395.983 109.577,395.981 108.678,395.886 108.186 C 395.791 107.695,395.716 108.192,395.719 109.291 M373.735 109.491 C 373.735 110.480,373.813 110.884,373.908 110.390 C 374.004 109.895,374.004 109.086,373.908 108.591 C 373.813 108.097,373.735 108.501,373.735 109.491 M394.498 121.079 C 394.498 121.848,394.581 122.163,394.681 121.778 C 394.782 121.394,394.782 120.764,394.681 120.380 C 394.581 119.995,394.498 120.310,394.498 121.079 M372.121 122.677 C 372.121 123.447,372.203 123.761,372.303 123.377 C 372.404 122.992,372.404 122.363,372.303 121.978 C 372.203 121.593,372.121 121.908,372.121 122.677 M394.120 125.674 C 394.123 126.773,394.201 127.175,394.293 126.568 C 394.385 125.961,394.382 125.061,394.287 124.570 C 394.192 124.078,394.117 124.575,394.120 125.674 M371.721 126.274 C 371.721 127.043,371.803 127.358,371.904 126.973 C 372.004 126.588,372.004 125.959,371.904 125.574 C 371.803 125.190,371.721 125.504,371.721 126.274 M393.699 130.270 C 393.699 131.039,393.781 131.354,393.882 130.969 C 393.982 130.584,393.982 129.955,393.882 129.570 C 393.781 129.186,393.699 129.500,393.699 130.270 M392.500 139.061 C 392.500 139.830,392.583 140.145,392.683 139.760 C 392.784 139.376,392.784 138.746,392.683 138.362 C 392.583 137.977,392.500 138.292,392.500 139.061 M392.101 143.057 C 392.101 143.826,392.183 144.141,392.283 143.756 C 392.384 143.372,392.384 142.742,392.283 142.358 C 392.183 141.973,392.101 142.288,392.101 143.057 M243.058 316.683 C 243.062 317.562,243.144 317.875,243.240 317.378 C 243.335 316.881,243.332 316.162,243.232 315.780 C 243.132 315.398,243.053 315.804,243.058 316.683 M242.689 322.278 C 242.690 323.816,242.763 324.397,242.849 323.568 C 242.936 322.738,242.934 321.480,242.846 320.770 C 242.758 320.061,242.687 320.739,242.689 322.278 M228.732 340.859 C 228.732 344.266,228.794 345.659,228.868 343.956 C 228.943 342.253,228.943 339.466,228.868 337.762 C 228.794 336.059,228.732 337.453,228.732 340.859 M242.681 341.459 C 242.684 342.777,242.758 343.269,242.847 342.550 C 242.936 341.832,242.934 340.753,242.843 340.153 C 242.752 339.552,242.679 340.140,242.681 341.459 M243.050 346.054 C 243.050 346.823,243.132 347.138,243.232 346.753 C 243.333 346.369,243.333 345.739,243.232 345.355 C 243.132 344.970,243.050 345.285,243.050 346.054 M263.836 377.898 C 264.221 377.998,264.850 377.998,265.235 377.898 C 265.619 377.797,265.305 377.715,264.535 377.715 C 263.766 377.715,263.452 377.797,263.836 377.898 M266.234 395.898 C 267.278 395.980,268.986 395.980,270.030 395.898 C 271.074 395.816,270.220 395.748,268.132 395.748 C 266.044 395.748,265.190 395.816,266.234 395.898"/><path id="path1" fill="#fbfbfb" fill-rule="evenodd" stroke="none" d="M0.000 199.800 L 0.000 399.600 200.000 399.600 L 400.000 399.600 400.000 199.800 L 400.000 0.000 200.000 0.000 L 0.000 0.000 0.000 199.800 M341.259 1.750 C 357.513 5.190,370.045 12.486,380.810 24.775 C 389.189 34.341,395.838 51.356,397.597 67.732 C 399.227 82.906,395.930 125.726,390.350 161.838 C 387.350 181.257,381.683 211.789,378.445 225.974 C 378.044 227.732,377.223 231.329,376.620 233.966 C 374.415 243.619,370.487 258.547,367.684 267.932 C 359.008 296.975,344.837 328.092,329.740 351.249 C 304.181 390.452,272.048 406.043,248.693 390.572 C 225.551 375.243,221.457 332.708,238.830 288.112 C 247.486 265.894,264.693 244.025,283.614 231.196 C 287.305 228.693,287.577 228.986,284.414 232.056 C 254.251 261.338,238.458 306.573,244.194 347.253 C 250.255 390.233,281.114 386.535,310.969 339.250 C 316.129 331.078,324.838 313.750,330.747 299.900 C 340.776 276.394,350.472 242.142,357.841 204.196 C 358.630 200.130,359.446 196.084,359.655 195.205 C 359.863 194.326,360.315 191.898,360.661 189.810 C 361.006 187.722,361.451 185.295,361.651 184.416 C 361.851 183.536,362.566 179.670,363.240 175.824 C 363.913 171.978,364.894 166.404,365.419 163.437 C 369.748 138.966,373.086 112.610,375.009 87.712 C 376.851 63.863,373.682 49.241,364.011 36.963 C 353.262 23.318,333.015 15.866,315.154 18.980 C 309.088 20.038,292.885 27.957,275.924 38.153 C 273.946 39.342,271.608 40.745,270.729 41.270 C 269.850 41.796,265.265 44.564,260.539 47.422 C 224.092 69.468,210.129 70.769,191.296 53.872 C 187.768 50.707,188.128 50.547,192.690 53.253 C 201.556 58.511,205.149 59.677,212.587 59.713 C 223.163 59.764,231.513 55.589,250.949 40.531 C 271.874 24.319,284.772 15.370,299.700 6.705 C 304.711 3.797,311.166 1.738,318.681 0.649 C 322.759 0.059,336.411 0.724,341.259 1.750 M100.500 2.432 C 147.729 7.208,185.953 37.688,202.688 83.916 C 207.560 97.372,209.595 105.051,211.798 118.282 C 213.800 130.300,213.804 151.104,211.808 160.771 C 204.370 196.778,183.401 212.186,159.691 199.063 C 124.702 179.698,102.990 179.811,92.195 199.415 C 90.163 203.105,91.795 196.727,93.937 192.607 C 103.734 173.763,129.378 171.299,166.987 185.588 C 179.809 190.459,188.231 178.413,188.898 154.246 C 189.850 119.811,172.404 78.974,147.839 58.131 C 122.628 36.740,78.529 32.022,57.235 48.436 C 43.426 59.081,37.991 83.527,41.975 117.083 C 43.330 128.498,44.525 136.609,45.831 143.257 C 47.495 151.726,47.955 153.964,48.871 158.042 C 50.439 165.024,54.388 180.017,56.343 186.414 C 56.745 187.732,57.554 190.430,58.140 192.408 C 59.152 195.830,60.049 198.657,62.704 206.793 C 65.691 215.950,71.595 232.414,76.246 244.555 C 81.516 258.313,95.625 293.629,97.830 298.583 C 98.251 299.527,99.629 302.637,100.894 305.495 C 102.158 308.352,103.980 312.367,104.943 314.418 C 105.906 316.469,106.693 318.234,106.693 318.340 C 106.693 319.281,118.032 341.042,122.327 348.344 C 137.291 373.783,146.338 382.291,154.931 379.009 C 156.959 378.235,163.638 371.963,165.558 369.031 C 166.133 368.152,167.126 366.697,167.765 365.798 C 171.504 360.529,176.705 350.203,179.821 341.858 C 182.392 334.974,183.297 332.357,185.209 326.274 C 187.447 319.155,190.604 308.253,191.804 303.497 C 194.665 292.160,197.658 281.702,198.197 281.163 C 198.723 280.638,198.714 280.856,197.980 286.913 C 197.647 289.660,197.030 295.415,196.610 299.700 C 191.983 346.918,183.485 373.116,167.435 389.642 C 155.402 402.033,135.941 398.888,119.309 381.865 C 99.087 361.168,74.795 321.424,52.174 272.027 C 51.444 270.434,50.181 267.692,49.366 265.934 C 46.406 259.550,44.925 256.262,42.257 250.150 C 41.058 247.403,39.486 243.806,38.764 242.158 C 38.042 240.509,36.468 236.733,35.265 233.766 C 34.062 230.799,32.637 227.293,32.097 225.974 C 29.275 219.076,22.660 200.823,20.368 193.606 C 15.836 179.339,12.371 166.875,10.368 157.642 C 1.579 117.125,0.131 87.298,5.820 63.936 C 14.977 26.332,42.009 4.504,82.717 1.841 C 85.910 1.633,95.866 1.963,100.500 2.432"/><path id="path2" fill="#bea4cb" fill-rule="evenodd" stroke="none" d="M324.775 0.694 C 325.929 0.775,327.817 0.775,328.971 0.694 C 330.125 0.613,329.181 0.547,326.873 0.547 C 324.565 0.547,323.621 0.613,324.775 0.694 M376.224 20.380 C 377.082 21.259,377.874 21.978,377.984 21.978 C 378.094 21.978,377.482 21.259,376.623 20.380 C 375.765 19.500,374.973 18.781,374.863 18.781 C 374.753 18.781,375.365 19.500,376.224 20.380 M26.760 25.075 L 24.575 27.373 26.873 25.188 C 28.137 23.987,29.171 22.953,29.171 22.891 C 29.171 22.594,28.789 22.940,26.760 25.075 M53.925 51.049 L 52.547 52.547 54.046 51.170 C 54.870 50.413,55.544 49.739,55.544 49.672 C 55.544 49.367,55.206 49.654,53.925 51.049 M397.717 82.118 C 397.720 83.217,397.797 83.619,397.889 83.011 C 397.981 82.404,397.979 81.505,397.884 81.013 C 397.789 80.522,397.714 81.019,397.717 82.118 M2.555 94.905 C 2.556 97.982,2.619 99.188,2.695 97.585 C 2.771 95.982,2.770 93.464,2.694 91.991 C 2.617 90.517,2.555 91.828,2.555 94.905 M40.483 92.507 C 40.486 93.826,40.560 94.317,40.649 93.599 C 40.738 92.881,40.736 91.802,40.645 91.202 C 40.554 90.601,40.481 91.189,40.483 92.507 M40.479 98.302 C 40.479 99.510,40.554 100.005,40.646 99.401 C 40.737 98.796,40.737 97.807,40.646 97.203 C 40.554 96.598,40.479 97.093,40.479 98.302 M396.896 97.902 C 396.896 98.671,396.978 98.986,397.079 98.601 C 397.179 98.217,397.179 97.587,397.079 97.203 C 396.978 96.818,396.896 97.133,396.896 97.902 M213.115 137.463 C 213.115 138.891,213.187 139.476,213.276 138.761 C 213.365 138.047,213.365 136.878,213.276 136.164 C 213.187 135.450,213.115 136.034,213.115 137.463 M213.111 143.257 C 213.113 144.575,213.188 145.067,213.277 144.348 C 213.366 143.630,213.364 142.551,213.273 141.951 C 213.181 141.350,213.109 141.938,213.111 143.257 M189.164 152.048 C 189.164 154.685,189.229 155.712,189.307 154.330 C 189.386 152.948,189.385 150.790,189.306 149.535 C 189.227 148.280,189.163 149.411,189.164 152.048 M98.680 186.114 L 97.303 187.612 98.801 186.235 C 100.196 184.954,100.483 184.615,100.178 184.615 C 100.112 184.615,99.437 185.290,98.680 186.114 M171.928 187.288 C 172.313 187.389,172.942 187.389,173.327 187.288 C 173.711 187.188,173.397 187.106,172.627 187.106 C 171.858 187.106,171.543 187.188,171.928 187.288 M174.331 203.683 C 174.939 203.775,175.838 203.773,176.329 203.678 C 176.821 203.583,176.324 203.508,175.225 203.511 C 174.126 203.514,173.724 203.591,174.331 203.683 M281.500 234.266 L 279.920 235.964 281.618 234.384 C 282.552 233.516,283.317 232.751,283.317 232.686 C 283.317 232.384,282.969 232.686,281.500 234.266 M228.318 341.059 C 228.319 343.257,228.386 344.105,228.467 342.944 C 228.548 341.782,228.547 339.984,228.465 338.948 C 228.383 337.911,228.317 338.861,228.318 341.059 M290.684 365.335 L 289.510 366.633 290.809 365.460 C 291.523 364.814,292.108 364.230,292.108 364.161 C 292.108 363.852,291.778 364.124,290.684 365.335 M309.879 375.325 L 307.093 378.222 309.990 375.435 C 312.681 372.847,313.070 372.428,312.776 372.428 C 312.716 372.428,311.412 373.731,309.879 375.325 M266.434 396.297 C 267.368 396.381,268.896 396.381,269.830 396.297 C 270.764 396.212,270.000 396.144,268.132 396.144 C 266.264 396.144,265.500 396.212,266.434 396.297"/><path id="path3" fill="#b47fba" fill-rule="evenodd" stroke="none" d="M321.079 1.227 C 321.880 1.450,321.350 1.495,319.481 1.362 C 317.364 1.211,316.829 1.271,317.283 1.609 C 317.739 1.949,317.430 1.995,315.984 1.802 C 314.699 1.631,314.086 1.694,314.086 1.997 C 314.086 2.243,313.898 2.328,313.667 2.186 C 312.969 1.755,309.111 2.831,309.748 3.279 C 310.119 3.541,309.934 3.583,309.157 3.413 C 308.340 3.234,308.106 3.297,308.318 3.639 C 308.529 3.980,308.316 4.038,307.552 3.847 C 306.897 3.683,306.494 3.746,306.494 4.012 C 306.494 4.249,306.327 4.340,306.124 4.214 C 305.623 3.905,303.668 4.826,303.929 5.249 C 304.044 5.434,303.858 5.478,303.517 5.347 C 303.157 5.209,302.897 5.322,302.897 5.618 C 302.897 5.898,302.784 6.014,302.647 5.877 C 302.308 5.538,300.100 6.708,300.100 7.227 C 300.100 7.454,299.920 7.528,299.700 7.393 C 299.481 7.257,299.301 7.347,299.301 7.592 C 299.301 7.838,299.121 7.928,298.901 7.792 C 298.681 7.656,298.501 7.766,298.501 8.035 C 298.501 8.304,298.388 8.411,298.249 8.272 C 297.875 7.898,296.443 8.769,296.713 9.206 C 296.844 9.418,296.646 9.467,296.259 9.318 C 295.757 9.125,295.661 9.197,295.900 9.584 C 296.119 9.937,296.073 10.018,295.763 9.827 C 295.338 9.564,293.039 10.871,292.463 11.703 C 292.328 11.897,292.102 12.037,291.959 12.014 C 291.438 11.929,289.311 13.219,289.311 13.620 C 289.311 13.847,289.153 13.936,288.961 13.817 C 288.769 13.699,288.095 14.093,287.463 14.693 C 286.831 15.293,286.134 15.793,285.914 15.803 C 285.115 15.840,283.700 16.833,283.926 17.198 C 284.057 17.410,283.859 17.459,283.472 17.310 C 283.059 17.152,282.885 17.207,283.034 17.448 C 283.170 17.668,283.059 17.849,282.787 17.849 C 282.122 17.849,280.120 19.183,280.120 19.626 C 280.120 19.821,279.985 19.942,279.820 19.895 C 279.212 19.723,277.709 20.834,277.973 21.261 C 278.137 21.527,278.062 21.589,277.784 21.417 C 277.530 21.260,277.323 21.333,277.323 21.578 C 277.323 21.824,277.161 21.925,276.964 21.803 C 276.766 21.681,276.053 22.097,275.379 22.726 C 274.705 23.356,274.082 23.799,273.995 23.712 C 273.908 23.624,273.278 24.074,272.596 24.711 C 271.915 25.348,271.285 25.797,271.198 25.710 C 271.110 25.622,270.466 26.086,269.765 26.740 C 269.065 27.395,268.366 27.957,268.212 27.990 C 268.058 28.024,267.483 28.406,266.933 28.840 C 266.384 29.274,266.187 29.499,266.495 29.339 C 266.867 29.145,266.959 29.205,266.767 29.515 C 266.608 29.773,266.303 29.875,266.089 29.742 C 265.556 29.413,264.482 30.360,264.801 30.876 C 264.943 31.105,264.878 31.181,264.657 31.044 C 264.203 30.763,260.939 33.028,260.939 33.625 C 260.939 33.838,260.774 33.911,260.571 33.786 C 260.369 33.661,259.722 34.145,259.132 34.861 C 258.543 35.578,258.195 35.915,258.358 35.610 C 258.522 35.306,258.090 35.474,257.400 35.985 C 256.190 36.879,255.655 37.512,256.605 36.925 C 256.893 36.747,256.958 36.815,256.777 37.108 C 256.618 37.365,256.350 37.490,256.181 37.386 C 255.717 37.099,254.098 38.360,254.369 38.798 C 254.499 39.009,254.427 39.131,254.211 39.071 C 253.757 38.944,252.374 39.799,251.154 40.959 C 250.692 41.399,250.142 41.821,249.932 41.898 C 249.722 41.974,249.101 42.392,248.551 42.826 C 248.002 43.260,247.805 43.485,248.114 43.325 C 248.486 43.131,248.578 43.191,248.386 43.501 C 248.227 43.759,247.966 43.888,247.805 43.789 C 247.371 43.520,246.355 44.251,246.345 44.841 C 246.340 45.123,246.064 45.311,245.732 45.257 C 245.400 45.203,244.505 45.738,243.743 46.444 C 242.981 47.151,242.263 47.703,242.148 47.671 C 242.033 47.639,241.494 47.974,240.949 48.416 C 240.405 48.858,240.230 49.086,240.559 48.922 C 240.889 48.757,241.019 48.777,240.848 48.965 C 240.676 49.153,240.295 49.343,240.000 49.386 C 239.139 49.512,237.351 50.807,237.564 51.151 C 237.670 51.323,237.480 51.571,237.140 51.702 C 236.761 51.847,236.624 51.774,236.786 51.512 C 236.931 51.277,236.416 51.500,235.641 52.008 C 234.866 52.516,234.336 53.115,234.463 53.339 C 234.590 53.563,234.553 53.619,234.380 53.464 C 233.983 53.106,230.969 54.619,230.969 55.177 C 230.969 55.405,230.789 55.480,230.569 55.345 C 230.350 55.209,230.170 55.288,230.170 55.521 C 230.170 55.754,230.035 55.908,229.870 55.865 C 229.255 55.702,227.769 56.415,227.987 56.767 C 228.112 56.969,227.906 57.016,227.528 56.871 C 227.022 56.677,226.929 56.748,227.173 57.143 C 227.415 57.534,227.325 57.610,226.839 57.423 C 226.473 57.283,226.174 57.353,226.174 57.579 C 226.174 57.804,226.015 57.891,225.820 57.771 C 225.327 57.466,222.933 58.347,223.178 58.743 C 223.288 58.921,222.990 58.965,222.515 58.841 C 221.910 58.683,221.741 58.758,221.949 59.094 C 222.165 59.443,221.949 59.498,221.153 59.298 C 220.502 59.135,220.155 59.177,220.293 59.401 C 220.553 59.821,217.747 60.069,212.587 60.082 C 208.116 60.093,204.995 59.819,204.995 59.414 C 204.995 59.234,204.613 59.208,204.146 59.357 C 203.520 59.555,203.379 59.493,203.609 59.121 C 203.836 58.753,203.687 58.677,203.059 58.841 C 202.585 58.965,202.287 58.921,202.397 58.743 C 202.641 58.347,200.248 57.466,199.754 57.771 C 199.560 57.891,199.401 57.804,199.401 57.579 C 199.401 57.353,199.101 57.283,198.736 57.423 C 198.322 57.582,198.169 57.519,198.331 57.257 C 198.580 56.854,196.333 55.650,195.704 55.849 C 195.539 55.901,195.405 55.728,195.405 55.465 C 195.405 55.097,195.295 55.095,194.935 55.455 C 194.403 55.986,195.625 57.700,196.257 57.310 C 196.448 57.192,196.603 57.262,196.603 57.466 C 196.603 58.065,199.787 59.996,200.276 59.693 C 200.568 59.513,200.610 59.600,200.396 59.946 C 200.156 60.334,200.252 60.405,200.754 60.212 C 201.169 60.053,201.342 60.109,201.191 60.352 C 200.878 60.859,203.353 61.930,204.141 61.628 C 204.486 61.495,204.621 61.574,204.469 61.819 C 204.164 62.313,207.580 63.715,208.182 63.343 C 208.407 63.203,208.591 63.276,208.591 63.503 C 208.591 63.748,209.118 63.825,209.890 63.693 C 210.879 63.522,211.046 63.571,210.589 63.896 C 210.057 64.276,210.057 64.326,210.589 64.343 C 210.919 64.353,212.448 64.532,213.986 64.739 C 217.165 65.168,223.258 64.817,221.968 64.280 C 221.489 64.081,221.966 64.038,223.177 64.172 C 224.736 64.344,225.043 64.291,224.575 63.931 C 224.098 63.563,224.240 63.515,225.275 63.693 C 226.047 63.825,226.573 63.748,226.573 63.503 C 226.573 63.276,226.750 63.199,226.965 63.332 C 227.538 63.686,230.585 62.686,230.307 62.236 C 230.164 62.005,230.428 61.966,230.969 62.138 C 231.643 62.352,231.789 62.295,231.553 61.913 C 231.328 61.548,231.431 61.477,231.914 61.662 C 232.697 61.963,235.857 60.812,235.561 60.335 C 235.453 60.159,235.752 60.116,236.226 60.240 C 236.868 60.408,237.005 60.332,236.764 59.941 C 236.557 59.606,236.596 59.514,236.874 59.685 C 237.413 60.018,240.202 58.733,239.922 58.280 C 239.810 58.099,240.027 58.070,240.404 58.214 C 240.887 58.399,241.000 58.331,240.785 57.983 C 240.593 57.672,240.679 57.534,241.019 57.609 C 241.801 57.784,244.185 56.713,243.930 56.302 C 243.812 56.110,244.023 56.072,244.400 56.216 C 244.897 56.407,244.998 56.336,244.765 55.960 C 244.549 55.610,244.625 55.505,244.999 55.638 C 245.734 55.898,247.844 54.817,247.545 54.333 C 247.412 54.118,247.606 54.068,247.997 54.218 C 248.494 54.409,248.594 54.338,248.362 53.962 C 248.145 53.612,248.221 53.507,248.596 53.640 C 249.330 53.900,251.440 52.819,251.141 52.335 C 251.008 52.120,251.203 52.070,251.593 52.220 C 252.055 52.398,252.186 52.333,251.993 52.021 C 251.814 51.732,251.912 51.636,252.253 51.767 C 252.553 51.883,253.327 51.477,253.972 50.865 C 254.617 50.254,255.426 49.734,255.769 49.710 C 256.623 49.651,258.541 48.356,258.541 47.839 C 258.541 47.608,258.654 47.532,258.792 47.670 C 259.168 48.046,261.401 46.778,261.131 46.341 C 261.003 46.133,261.175 46.070,261.514 46.200 C 261.877 46.339,262.232 46.174,262.376 45.798 C 262.511 45.447,262.776 45.255,262.964 45.372 C 263.153 45.488,263.719 45.172,264.221 44.670 C 264.724 44.167,265.281 43.805,265.461 43.865 C 265.820 43.985,268.160 42.441,268.625 41.777 C 268.787 41.547,268.922 41.500,268.925 41.672 C 268.928 41.845,269.296 41.791,269.741 41.552 C 270.187 41.314,270.429 40.920,270.279 40.677 C 270.103 40.393,270.192 40.351,270.528 40.559 C 270.857 40.762,271.250 40.608,271.589 40.145 C 271.885 39.739,272.128 39.543,272.128 39.709 C 272.128 39.875,272.840 39.611,273.710 39.122 C 274.580 38.633,275.182 38.054,275.047 37.836 C 274.912 37.618,274.995 37.559,275.232 37.705 C 275.748 38.024,278.521 36.467,278.521 35.858 C 278.521 35.623,278.634 35.544,278.772 35.682 C 279.148 36.058,281.381 34.790,281.111 34.353 C 280.978 34.138,281.173 34.088,281.563 34.238 C 282.069 34.432,282.162 34.361,281.918 33.966 C 281.683 33.585,281.762 33.498,282.195 33.664 C 282.900 33.935,285.063 32.649,284.631 32.217 C 284.471 32.057,284.679 32.056,285.093 32.215 C 285.660 32.432,285.764 32.372,285.514 31.968 C 285.279 31.587,285.359 31.500,285.791 31.666 C 286.497 31.937,288.660 30.651,288.227 30.219 C 288.067 30.059,288.275 30.058,288.689 30.217 C 289.247 30.431,289.359 30.371,289.121 29.986 C 288.904 29.636,288.980 29.531,289.355 29.664 C 290.158 29.948,292.191 28.829,291.856 28.287 C 291.673 27.992,291.807 27.924,292.242 28.091 C 292.608 28.232,292.907 28.172,292.907 27.959 C 292.907 27.747,293.042 27.615,293.207 27.667 C 293.768 27.845,296.095 26.682,295.878 26.332 C 295.760 26.140,295.971 26.102,296.348 26.246 C 296.845 26.437,296.946 26.366,296.713 25.990 C 296.497 25.640,296.573 25.535,296.947 25.668 C 297.628 25.909,299.700 24.911,299.700 24.342 C 299.700 24.115,299.880 24.040,300.100 24.176 C 300.320 24.312,300.500 24.222,300.500 23.976 C 300.500 23.730,300.668 23.633,300.873 23.760 C 301.389 24.079,304.908 22.322,304.635 21.881 C 304.514 21.685,304.658 21.579,304.955 21.645 C 305.813 21.837,308.110 20.732,307.821 20.265 C 307.660 20.004,307.813 19.941,308.226 20.099 C 308.592 20.240,308.891 20.172,308.891 19.950 C 308.891 19.727,309.116 19.587,309.391 19.637 C 310.472 19.835,314.519 18.650,314.001 18.286 C 313.683 18.063,314.250 18.019,315.485 18.170 C 316.583 18.304,317.270 18.269,317.011 18.092 C 316.751 17.914,319.603 17.763,323.348 17.755 C 327.140 17.747,329.828 17.884,329.414 18.064 C 328.985 18.250,329.683 18.304,331.069 18.191 C 332.437 18.079,333.141 18.132,332.709 18.314 C 331.846 18.677,337.163 19.844,338.798 19.650 C 339.424 19.575,339.639 19.692,339.447 20.002 C 339.245 20.328,339.427 20.381,340.060 20.180 C 340.726 19.968,340.879 20.024,340.650 20.395 C 340.416 20.773,340.625 20.829,341.499 20.626 C 342.302 20.438,342.480 20.473,342.079 20.740 C 341.417 21.179,343.267 21.831,344.599 21.627 C 345.008 21.565,345.241 21.676,345.118 21.875 C 344.844 22.320,348.357 24.082,348.877 23.760 C 349.083 23.633,349.251 23.750,349.251 24.019 C 349.251 24.288,349.356 24.404,349.484 24.276 C 349.612 24.148,350.062 24.387,350.483 24.809 C 350.904 25.230,351.619 25.574,352.072 25.574 C 352.598 25.574,352.790 25.743,352.605 26.042 C 352.409 26.359,352.537 26.425,353.002 26.246 C 353.389 26.098,353.587 26.146,353.456 26.358 C 353.222 26.737,354.789 27.815,355.345 27.657 C 355.509 27.611,355.644 27.763,355.644 27.996 C 355.644 28.228,355.829 28.305,356.054 28.166 C 356.279 28.027,356.414 28.123,356.354 28.379 C 356.293 28.636,356.592 29.054,357.018 29.308 C 357.444 29.562,358.225 30.265,358.753 30.870 C 359.281 31.475,359.904 31.852,360.138 31.708 C 360.372 31.563,360.451 31.626,360.314 31.848 C 359.993 32.367,361.789 34.072,362.232 33.670 C 362.415 33.503,362.445 33.577,362.298 33.834 C 362.148 34.096,362.515 34.683,363.133 35.169 C 363.740 35.646,364.237 36.155,364.239 36.300 C 364.244 36.769,365.500 38.363,365.704 38.159 C 365.812 38.051,365.901 38.192,365.901 38.474 C 365.901 39.203,367.244 41.159,367.745 41.159 C 367.976 41.159,368.052 41.272,367.915 41.409 C 367.538 41.786,368.806 44.018,369.243 43.749 C 369.458 43.616,369.508 43.810,369.358 44.201 C 369.164 44.706,369.236 44.799,369.630 44.555 C 370.022 44.314,370.097 44.404,369.911 44.889 C 369.770 45.255,369.840 45.554,370.066 45.554 C 370.292 45.554,370.374 45.721,370.248 45.924 C 369.939 46.425,370.860 48.380,371.283 48.119 C 371.468 48.004,371.501 48.219,371.356 48.596 C 371.167 49.088,371.237 49.193,371.603 48.967 C 371.986 48.730,372.042 48.877,371.828 49.550 C 371.614 50.224,371.671 50.371,372.053 50.134 C 372.413 49.912,372.490 50.010,372.314 50.468 C 371.995 51.300,373.338 55.293,373.794 54.867 C 373.985 54.689,374.021 55.035,373.875 55.644 C 373.706 56.349,373.773 56.743,374.061 56.743 C 374.309 56.743,374.408 57.012,374.282 57.341 C 373.904 58.325,374.897 62.642,375.287 61.710 C 375.476 61.258,375.518 61.765,375.388 62.937 C 375.219 64.474,375.272 64.797,375.619 64.336 C 375.962 63.881,376.006 64.350,375.802 66.285 C 375.654 67.691,375.689 68.739,375.879 68.621 C 376.069 68.504,376.232 71.623,376.241 75.553 C 376.251 79.544,376.110 82.481,375.922 82.208 C 375.735 81.936,375.677 83.496,375.793 85.714 C 375.936 88.466,375.882 89.399,375.621 88.711 C 375.353 88.007,375.286 88.893,375.392 91.708 C 375.474 93.906,375.424 94.985,375.279 94.106 C 374.929 91.973,373.971 102.094,374.277 104.695 C 374.440 106.074,374.385 106.354,374.044 105.894 C 373.709 105.443,373.650 106.035,373.804 108.292 C 373.952 110.453,373.902 111.010,373.624 110.290 C 373.339 109.547,373.282 110.009,373.404 112.088 C 373.496 113.650,373.438 114.444,373.272 113.886 C 372.890 112.596,372.028 120.172,372.294 122.478 C 372.437 123.712,372.378 123.940,372.036 123.477 C 371.703 123.026,371.654 123.471,371.838 125.275 C 372.026 127.112,371.977 127.532,371.628 127.073 C 371.279 126.612,371.222 127.027,371.382 128.871 C 371.502 130.254,371.460 130.846,371.284 130.270 C 370.887 128.979,369.983 135.499,370.319 137.222 C 370.488 138.088,370.419 138.302,370.043 138.070 C 369.652 137.829,369.601 138.235,369.809 139.909 C 369.968 141.185,369.933 141.851,369.724 141.549 C 369.285 140.915,368.026 148.840,368.321 150.382 C 368.448 151.049,368.349 151.449,368.054 151.449 C 367.723 151.449,367.659 152.014,367.836 153.347 C 367.989 154.492,367.948 155.045,367.734 154.740 C 367.264 154.072,366.006 161.231,366.318 162.797 C 366.483 163.622,366.415 163.872,366.082 163.666 C 365.741 163.455,365.680 163.841,365.857 165.105 C 366.020 166.273,365.973 166.655,365.711 166.283 C 365.273 165.659,364.276 170.536,364.312 173.127 C 364.324 173.951,364.174 174.625,363.980 174.625 C 363.786 174.625,363.733 175.390,363.864 176.324 C 364.018 177.433,363.970 177.838,363.725 177.491 C 363.239 176.803,361.954 183.612,362.312 184.978 C 362.499 185.693,362.434 185.859,362.057 185.626 C 361.664 185.383,361.611 185.704,361.818 187.062 C 361.986 188.163,361.949 188.614,361.719 188.281 C 361.244 187.592,360.034 193.997,360.339 195.589 C 360.496 196.411,360.423 196.640,360.072 196.424 C 359.713 196.202,359.647 196.520,359.815 197.663 C 359.940 198.509,359.917 198.931,359.766 198.601 C 359.390 197.783,358.033 204.530,358.328 205.754 C 358.499 206.469,358.428 206.632,358.045 206.395 C 357.647 206.149,357.586 206.427,357.774 207.635 C 357.907 208.490,357.900 208.921,357.759 208.591 C 357.396 207.747,356.033 214.165,356.324 215.344 C 356.500 216.060,356.430 216.223,356.047 215.986 C 355.647 215.739,355.593 216.012,355.804 217.225 C 356.011 218.420,355.970 218.642,355.626 218.182 C 355.280 217.718,355.229 217.945,355.400 219.181 C 355.539 220.185,355.490 220.569,355.268 220.212 C 354.869 219.572,354.177 222.897,354.373 224.512 C 354.447 225.119,354.330 225.351,354.041 225.172 C 353.727 224.978,353.671 225.351,353.851 226.434 C 354.011 227.404,353.971 227.781,353.742 227.455 C 353.284 226.804,352.031 232.215,352.353 233.449 C 352.513 234.059,352.434 234.205,352.068 233.979 C 351.681 233.739,351.625 233.982,351.830 235.015 C 351.988 235.815,351.955 236.161,351.750 235.865 C 351.324 235.253,349.951 240.636,350.301 241.547 C 350.430 241.883,350.333 242.158,350.085 242.158 C 349.798 242.158,349.731 242.541,349.901 243.216 C 350.072 243.898,350.020 244.185,349.756 244.022 C 349.236 243.700,348.052 248.267,348.356 249.427 C 348.511 250.020,348.434 250.186,348.099 249.979 C 347.750 249.763,347.694 249.979,347.894 250.775 C 348.075 251.494,348.026 251.779,347.750 251.609 C 347.261 251.307,346.203 255.064,346.379 256.480 C 346.459 257.123,346.346 257.323,346.017 257.120 C 345.667 256.904,345.612 257.119,345.812 257.916 C 345.970 258.546,345.931 258.912,345.720 258.782 C 345.289 258.515,344.263 261.922,344.374 263.256 C 344.424 263.858,344.292 264.082,343.995 263.898 C 343.672 263.699,343.624 263.952,343.830 264.775 C 343.990 265.411,343.977 265.788,343.800 265.612 C 343.338 265.150,342.078 269.120,342.352 270.171 C 342.521 270.817,342.448 270.970,342.078 270.742 C 341.702 270.509,341.646 270.659,341.858 271.329 C 342.034 271.883,341.993 272.135,341.751 271.985 C 341.303 271.709,340.225 275.142,340.405 276.267 C 340.484 276.757,340.362 276.910,340.050 276.717 C 339.709 276.507,339.656 276.679,339.860 277.323 C 340.036 277.877,339.995 278.129,339.753 277.979 C 339.305 277.703,338.226 281.136,338.407 282.261 C 338.486 282.751,338.364 282.904,338.052 282.711 C 337.711 282.501,337.658 282.673,337.862 283.317 C 338.045 283.893,338.000 284.125,337.737 283.962 C 337.255 283.664,336.289 286.295,336.389 287.634 C 336.433 288.214,336.295 288.455,336.018 288.284 C 335.720 288.099,335.671 288.301,335.864 288.911 C 336.078 289.585,336.022 289.731,335.639 289.495 C 335.273 289.269,335.203 289.374,335.392 289.865 C 335.537 290.242,335.495 290.452,335.299 290.331 C 334.916 290.094,333.995 292.304,334.335 292.643 C 334.652 292.960,334.048 294.542,333.694 294.323 C 333.234 294.039,332.069 297.240,332.358 297.993 C 332.530 298.443,332.452 298.539,332.093 298.317 C 331.711 298.081,331.654 298.227,331.868 298.901 C 332.063 299.514,332.013 299.713,331.710 299.526 C 331.183 299.200,330.336 301.086,330.412 302.420 C 330.441 302.926,330.311 303.246,330.123 303.130 C 329.695 302.865,328.288 305.921,328.366 306.948 C 328.401 307.413,328.250 307.603,327.980 307.436 C 327.690 307.257,327.628 307.399,327.800 307.847 C 327.944 308.224,327.900 308.432,327.700 308.309 C 327.297 308.060,326.249 310.777,326.419 311.629 C 326.478 311.925,326.367 312.069,326.171 311.948 C 325.730 311.676,323.973 315.194,324.292 315.710 C 324.419 315.916,324.338 316.084,324.112 316.084 C 323.886 316.084,323.816 316.383,323.957 316.749 C 324.143 317.235,324.068 317.325,323.676 317.083 C 323.282 316.839,323.210 316.932,323.404 317.438 C 323.549 317.816,323.503 318.022,323.301 317.897 C 322.948 317.679,322.236 319.165,322.398 319.780 C 322.442 319.945,322.303 320.080,322.090 320.080 C 321.878 320.080,321.818 320.379,321.959 320.745 C 322.145 321.231,322.070 321.321,321.678 321.079 C 321.284 320.835,321.212 320.928,321.406 321.434 C 321.551 321.812,321.505 322.018,321.303 321.893 C 320.950 321.675,320.238 323.161,320.400 323.776 C 320.444 323.941,320.280 324.076,320.037 324.076 C 319.794 324.076,319.702 324.355,319.833 324.696 C 319.988 325.101,319.910 325.217,319.608 325.030 C 319.296 324.837,319.231 324.968,319.408 325.430 C 319.557 325.817,319.508 326.015,319.296 325.884 C 318.798 325.576,317.968 327.164,318.325 327.742 C 318.509 328.041,318.424 328.084,318.076 327.868 C 317.688 327.629,317.617 327.725,317.810 328.227 C 317.954 328.604,317.916 328.816,317.724 328.697 C 317.374 328.481,316.211 330.808,316.389 331.369 C 316.441 331.533,316.319 331.668,316.118 331.668 C 315.568 331.668,313.655 335.290,313.951 335.770 C 314.093 336.000,314.035 336.080,313.821 335.948 C 313.608 335.816,313.120 336.237,312.738 336.885 C 312.356 337.532,312.177 338.062,312.341 338.062 C 312.506 338.062,312.309 338.304,311.903 338.601 C 311.439 338.940,311.286 339.333,311.489 339.661 C 311.697 339.998,311.655 340.087,311.371 339.911 C 310.888 339.612,309.962 340.997,310.370 341.406 C 310.509 341.545,310.383 341.658,310.090 341.658 C 309.797 341.658,309.676 341.777,309.821 341.922 C 309.966 342.067,309.723 342.439,309.281 342.749 C 308.840 343.058,308.582 343.479,308.708 343.684 C 308.835 343.888,308.737 344.056,308.492 344.056 C 308.246 344.056,308.156 344.236,308.292 344.456 C 308.428 344.675,308.372 344.855,308.169 344.855 C 307.965 344.855,307.309 345.595,306.710 346.499 C 306.112 347.404,305.863 348.013,306.158 347.854 C 306.452 347.695,306.154 348.027,305.495 348.593 C 304.835 349.159,304.431 349.628,304.595 349.636 C 304.760 349.644,304.529 350.017,304.081 350.464 C 303.634 350.912,303.392 351.479,303.544 351.725 C 303.705 351.986,303.640 352.060,303.386 351.903 C 302.861 351.579,301.630 353.213,301.977 353.773 C 302.111 353.991,302.023 354.047,301.780 353.897 C 301.353 353.633,300.242 355.136,300.415 355.744 C 300.461 355.909,300.352 355.999,300.172 355.944 C 299.648 355.784,295.695 360.501,295.975 360.953 C 296.114 361.178,296.050 361.253,295.833 361.119 C 295.379 360.838,291.583 364.542,291.898 364.959 C 292.014 365.111,291.993 365.150,291.853 365.046 C 291.497 364.783,286.688 368.870,286.823 369.321 C 286.883 369.524,286.747 369.575,286.519 369.434 C 286.291 369.293,285.586 369.684,284.952 370.303 C 284.317 370.922,283.587 371.478,283.329 371.538 C 282.341 371.768,280.937 372.933,281.178 373.322 C 281.319 373.550,281.185 373.643,280.875 373.533 C 280.140 373.273,278.030 374.354,278.329 374.838 C 278.462 375.053,278.268 375.102,277.877 374.952 C 277.372 374.759,277.279 374.830,277.522 375.225 C 277.764 375.616,277.674 375.691,277.188 375.505 C 276.823 375.365,276.523 375.435,276.523 375.661 C 276.523 375.886,276.364 375.973,276.170 375.853 C 275.533 375.459,273.180 376.482,273.788 376.888 C 274.129 377.116,273.903 377.149,273.167 376.977 C 272.294 376.773,272.085 376.830,272.318 377.207 C 272.553 377.587,272.326 377.642,271.379 377.434 C 270.692 377.283,270.130 377.317,270.130 377.510 C 270.130 377.703,268.607 377.870,266.746 377.882 C 264.593 377.896,263.452 377.759,263.609 377.505 C 263.764 377.253,263.452 377.207,262.763 377.380 C 261.967 377.580,261.751 377.525,261.967 377.176 C 262.175 376.840,262.006 376.764,261.401 376.923 C 260.926 377.047,260.621 377.015,260.722 376.852 C 260.993 376.413,258.166 375.166,257.615 375.482 C 257.355 375.631,257.272 375.610,257.429 375.436 C 257.722 375.111,256.247 373.741,255.564 373.706 C 255.355 373.695,255.045 373.310,254.876 372.851 C 254.706 372.392,254.113 371.844,253.557 371.632 C 253.002 371.421,252.547 371.144,252.547 371.015 C 252.547 370.887,252.772 370.912,253.047 371.070 C 253.527 371.346,252.027 369.455,251.113 368.631 C 250.869 368.412,250.618 368.052,250.556 367.832 C 250.222 366.666,249.593 365.684,249.297 365.867 C 249.112 365.982,249.079 365.767,249.223 365.390 C 249.416 364.888,249.345 364.792,248.957 365.031 C 248.617 365.241,248.524 365.203,248.696 364.924 C 249.050 364.352,247.729 361.605,247.244 361.905 C 247.021 362.043,246.984 361.771,247.153 361.239 C 247.367 360.565,247.310 360.419,246.928 360.655 C 246.568 360.878,246.491 360.780,246.667 360.322 C 246.978 359.509,245.647 355.485,245.211 355.922 C 245.034 356.098,245.021 355.721,245.181 355.084 C 245.394 354.232,245.345 354.005,244.992 354.223 C 244.664 354.426,244.549 354.226,244.626 353.583 C 244.838 351.802,243.629 345.344,243.290 346.454 C 243.113 347.033,243.063 346.362,243.169 344.855 C 243.271 343.427,243.219 342.566,243.055 342.942 C 242.891 343.318,242.756 338.224,242.755 331.621 C 242.754 325.018,242.884 320.035,243.044 320.547 C 243.203 321.060,243.264 320.040,243.178 318.282 C 243.093 316.523,243.125 315.534,243.251 316.084 C 243.552 317.406,244.897 307.912,244.669 306.069 C 244.534 304.983,244.593 304.821,244.950 305.295 C 245.298 305.756,245.345 305.481,245.155 304.096 C 244.996 302.941,245.040 302.490,245.279 302.836 C 245.722 303.480,246.802 298.583,246.630 296.703 C 246.543 295.748,246.610 295.626,246.961 296.104 C 247.301 296.567,247.351 296.384,247.182 295.305 C 247.061 294.535,247.079 294.174,247.222 294.500 C 247.569 295.293,248.983 290.273,248.664 289.382 C 248.529 289.006,248.579 288.853,248.777 289.033 C 249.239 289.456,250.984 284.272,250.662 283.432 C 250.487 282.976,250.564 282.879,250.924 283.101 C 251.306 283.338,251.363 283.191,251.149 282.517 C 250.977 281.976,251.016 281.712,251.246 281.855 C 251.668 282.115,252.815 279.043,252.618 278.182 C 252.540 277.845,252.678 277.756,252.983 277.944 C 253.332 278.160,253.408 277.999,253.247 277.385 C 253.123 276.910,253.164 276.610,253.338 276.718 C 253.732 276.961,254.724 274.635,254.649 273.643 C 254.616 273.199,254.769 273.018,255.037 273.184 C 255.327 273.363,255.389 273.220,255.217 272.772 C 255.073 272.395,255.111 272.183,255.303 272.302 C 255.689 272.541,256.602 270.591,256.748 269.214 C 256.904 267.742,256.931 267.677,257.296 267.903 C 257.650 268.122,258.816 265.800,258.636 265.235 C 258.584 265.070,258.751 264.935,259.008 264.935 C 259.264 264.935,259.369 264.830,259.241 264.702 C 259.113 264.574,259.359 264.118,259.788 263.688 C 260.217 263.259,260.462 262.735,260.331 262.523 C 260.200 262.311,260.294 262.138,260.539 262.138 C 260.785 262.138,260.874 261.956,260.737 261.734 C 260.599 261.512,261.030 260.786,261.694 260.122 C 262.472 259.344,262.813 258.683,262.652 258.263 C 262.470 257.789,262.548 257.702,262.937 257.942 C 263.332 258.186,263.403 258.093,263.209 257.587 C 263.065 257.210,263.106 257.001,263.302 257.122 C 263.498 257.242,264.036 256.702,264.497 255.919 C 264.958 255.137,265.111 254.634,264.836 254.800 C 264.561 254.966,264.921 254.513,265.637 253.791 C 266.353 253.070,266.837 252.316,266.713 252.114 C 266.588 251.913,266.687 251.748,266.933 251.748 C 267.179 251.748,267.252 251.541,267.095 251.287 C 266.929 251.018,266.984 250.933,267.227 251.084 C 267.667 251.355,269.064 249.528,269.064 248.681 C 269.064 248.409,269.194 248.267,269.354 248.366 C 269.513 248.464,269.936 248.097,270.295 247.549 C 270.654 247.001,270.877 246.553,270.791 246.553 C 270.705 246.553,271.242 245.910,271.984 245.123 C 272.727 244.336,273.215 243.499,273.069 243.263 C 272.922 243.025,272.989 242.948,273.220 243.091 C 273.715 243.397,274.548 242.488,274.696 241.478 C 274.754 241.083,275.024 240.759,275.295 240.759 C 275.961 240.759,276.960 239.343,276.649 238.840 C 276.512 238.619,276.587 238.553,276.815 238.694 C 277.390 239.050,280.637 235.448,280.370 234.752 C 280.252 234.444,280.355 234.068,280.599 233.917 C 280.867 233.751,280.930 233.825,280.757 234.104 C 280.135 235.112,281.350 234.490,282.169 233.382 C 282.651 232.732,283.169 232.277,283.322 232.371 C 283.475 232.465,284.017 232.099,284.527 231.556 C 285.989 230.000,285.188 230.382,281.515 232.992 C 279.516 234.413,278.217 235.595,278.375 235.851 C 278.526 236.095,278.462 236.174,278.231 236.031 C 277.666 235.683,275.650 237.319,275.982 237.856 C 276.141 238.114,276.059 238.169,275.776 237.994 C 275.495 237.821,274.702 238.319,273.816 239.224 C 272.997 240.060,271.968 240.933,271.528 241.163 C 271.089 241.394,270.729 241.802,270.729 242.070 C 270.729 242.338,270.549 242.570,270.330 242.586 C 269.636 242.635,268.539 243.845,268.802 244.271 C 268.941 244.495,268.873 244.567,268.651 244.430 C 268.133 244.109,266.427 245.905,266.830 246.347 C 266.996 246.531,266.936 246.569,266.695 246.432 C 266.453 246.295,265.734 246.743,265.096 247.429 C 264.458 248.114,264.174 248.538,264.465 248.371 C 264.757 248.204,263.893 249.167,262.545 250.510 C 261.099 251.952,260.212 253.140,260.379 253.411 C 260.547 253.683,260.487 253.761,260.232 253.603 C 259.826 253.353,258.165 255.237,258.286 255.811 C 258.316 255.957,258.178 256.227,257.978 256.410 C 257.767 256.604,257.735 256.534,257.902 256.244 C 258.445 255.299,257.891 255.746,256.964 257.000 C 256.453 257.691,256.283 258.103,256.586 257.916 C 256.889 257.729,256.463 258.249,255.641 259.071 C 254.259 260.453,253.958 261.002,254.108 261.868 C 254.140 262.049,254.001 262.096,253.800 261.971 C 253.298 261.661,252.047 263.650,252.393 264.209 C 252.552 264.467,252.493 264.549,252.253 264.401 C 252.024 264.259,251.542 264.591,251.183 265.138 C 250.825 265.686,250.638 266.134,250.769 266.134 C 250.899 266.134,250.722 266.418,250.375 266.765 C 250.027 267.113,249.862 267.590,250.008 267.826 C 250.156 268.065,250.088 268.141,249.854 267.996 C 249.457 267.751,248.832 268.643,248.767 269.547 C 248.751 269.777,248.336 270.395,247.845 270.921 C 247.009 271.819,246.792 272.306,246.906 273.027 C 246.932 273.192,246.763 273.327,246.530 273.327 C 246.297 273.327,246.218 273.506,246.354 273.726 C 246.489 273.946,246.415 274.126,246.188 274.126 C 245.619 274.126,244.621 276.198,244.862 276.879 C 244.995 277.253,244.890 277.329,244.539 277.113 C 244.163 276.880,244.093 276.981,244.283 277.478 C 244.428 277.855,244.389 278.066,244.198 277.948 C 243.786 277.694,242.715 280.077,242.890 280.859 C 242.966 281.199,242.827 281.286,242.516 281.093 C 242.169 280.879,242.100 280.991,242.285 281.474 C 242.430 281.851,242.391 282.062,242.200 281.944 C 241.781 281.685,240.778 283.964,240.855 284.998 C 240.887 285.416,240.731 285.620,240.492 285.473 C 240.220 285.305,240.174 285.528,240.360 286.114 C 240.573 286.788,240.517 286.934,240.135 286.698 C 239.769 286.472,239.699 286.576,239.888 287.068 C 240.032 287.445,239.999 287.660,239.814 287.546 C 239.321 287.241,238.539 289.187,238.840 289.971 C 239.023 290.448,238.950 290.550,238.587 290.325 C 238.204 290.089,238.148 290.235,238.362 290.909 C 238.545 291.486,238.500 291.717,238.237 291.555 C 237.754 291.257,236.788 293.888,236.889 295.227 C 236.932 295.807,236.795 296.047,236.518 295.876 C 236.220 295.692,236.170 295.894,236.364 296.503 C 236.547 297.081,236.502 297.312,236.238 297.149 C 235.705 296.820,234.573 300.643,234.869 301.772 C 235.024 302.368,234.947 302.534,234.612 302.327 C 234.265 302.112,234.202 302.341,234.382 303.163 C 234.548 303.923,234.507 304.121,234.255 303.765 C 233.759 303.063,232.588 307.618,232.876 309.126 C 233.018 309.868,232.941 310.121,232.631 309.930 C 232.315 309.734,232.248 310.046,232.407 310.969 C 232.557 311.838,232.508 312.109,232.263 311.764 C 231.762 311.059,230.587 317.014,230.868 318.838 C 231.021 319.835,230.949 320.114,230.592 319.894 C 230.228 319.669,230.163 320.075,230.329 321.536 C 230.467 322.748,230.432 323.101,230.236 322.478 C 230.003 321.736,229.785 322.613,229.393 325.874 C 228.302 334.936,228.982 360.366,230.236 357.420 C 230.438 356.947,230.472 357.326,230.325 358.392 C 230.137 359.746,230.197 360.070,230.589 359.828 C 230.957 359.601,231.034 359.747,230.873 360.363 C 230.577 361.495,231.753 366.091,232.258 365.778 C 232.503 365.627,232.544 365.877,232.368 366.434 C 232.174 367.043,232.224 367.245,232.522 367.061 C 232.799 366.890,232.936 367.130,232.893 367.710 C 232.802 368.924,233.740 371.691,234.156 371.435 C 234.557 371.187,235.051 372.365,234.750 372.851 C 234.463 373.316,235.668 375.624,236.198 375.624 C 236.425 375.624,236.499 375.804,236.364 376.024 C 236.228 376.244,236.337 376.424,236.606 376.424 C 236.876 376.424,236.983 376.537,236.844 376.676 C 236.435 377.085,237.361 378.470,237.844 378.171 C 238.129 377.995,238.171 378.084,237.963 378.420 C 237.760 378.749,237.913 379.142,238.377 379.481 C 238.782 379.778,238.985 380.020,238.828 380.020 C 238.671 380.020,238.837 380.468,239.195 381.016 C 239.554 381.563,240.036 381.895,240.265 381.753 C 240.517 381.597,240.563 381.689,240.380 381.985 C 239.964 382.657,245.914 388.607,246.586 388.192 C 246.889 388.004,246.974 388.054,246.808 388.323 C 246.477 388.859,248.119 390.070,248.716 389.729 C 248.955 389.593,249.015 389.632,248.848 389.816 C 248.495 390.205,250.542 391.660,251.024 391.362 C 251.203 391.252,251.349 391.363,251.349 391.608 C 251.349 391.854,251.528 391.944,251.748 391.808 C 251.968 391.672,252.148 391.747,252.148 391.974 C 252.148 392.527,254.466 393.703,254.957 393.399 C 255.170 393.267,255.345 393.362,255.345 393.610 C 255.345 393.887,255.671 393.956,256.194 393.790 C 256.709 393.627,256.948 393.675,256.801 393.913 C 256.458 394.467,260.901 395.609,262.297 395.325 C 262.939 395.194,263.357 395.248,263.235 395.447 C 263.109 395.650,265.305 395.804,268.332 395.804 C 271.257 395.804,273.443 395.657,273.189 395.476 C 272.930 395.292,273.341 395.232,274.126 395.338 C 275.840 395.571,280.605 394.467,280.264 393.916 C 280.115 393.674,280.349 393.625,280.869 393.790 C 281.387 393.955,281.718 393.887,281.718 393.616 C 281.718 393.372,281.943 393.217,282.218 393.272 C 283.096 393.449,284.957 392.798,284.711 392.400 C 284.579 392.187,284.749 392.123,285.094 392.255 C 285.445 392.390,285.714 392.282,285.714 392.008 C 285.714 391.741,285.984 391.626,286.314 391.753 C 286.643 391.879,286.913 391.809,286.913 391.596 C 286.913 391.383,287.048 391.244,287.213 391.288 C 287.828 391.450,289.314 390.738,289.096 390.385 C 288.971 390.184,289.177 390.137,289.555 390.282 C 290.052 390.473,290.153 390.402,289.920 390.026 C 289.703 389.676,289.780 389.571,290.154 389.704 C 290.889 389.964,292.999 388.883,292.700 388.399 C 292.567 388.184,292.761 388.134,293.152 388.284 C 293.634 388.469,293.747 388.401,293.532 388.053 C 293.341 387.744,293.428 387.599,293.766 387.667 C 294.325 387.779,296.903 386.556,296.903 386.180 C 296.903 386.063,296.678 386.096,296.404 386.254 C 296.129 386.412,296.044 386.388,296.215 386.200 C 296.387 386.012,296.768 385.822,297.063 385.779 C 298.046 385.635,299.697 384.334,299.435 383.911 C 299.281 383.661,299.371 383.613,299.658 383.790 C 299.951 383.971,300.706 383.489,301.596 382.553 C 302.397 381.709,302.912 381.289,302.741 381.618 C 302.570 381.948,302.956 381.678,303.598 381.019 C 304.241 380.360,305.111 379.621,305.531 379.377 C 305.950 379.133,306.294 378.729,306.294 378.478 C 306.294 378.227,306.424 378.067,306.583 378.122 C 307.076 378.292,312.862 372.311,312.606 371.896 C 312.473 371.681,312.548 371.618,312.772 371.757 C 313.185 372.012,314.433 370.909,314.424 370.296 C 314.421 370.113,314.553 369.843,314.716 369.697 C 314.880 369.550,314.874 369.700,314.703 370.030 C 314.533 370.360,315.126 369.820,316.022 368.831 C 316.919 367.842,317.761 366.718,317.894 366.334 C 318.027 365.949,318.274 365.634,318.444 365.634 C 318.613 365.634,319.982 364.061,321.486 362.138 C 325.294 357.268,325.185 357.425,324.476 357.837 C 324.146 358.029,324.474 357.619,325.205 356.926 C 325.993 356.180,326.415 355.474,326.242 355.194 C 326.059 354.897,326.122 354.828,326.412 355.007 C 326.831 355.266,327.058 354.768,326.911 353.916 C 326.879 353.735,327.029 353.695,327.243 353.828 C 327.457 353.960,327.827 353.704,328.066 353.258 C 328.304 352.812,328.414 352.448,328.308 352.448 C 328.203 352.448,328.632 351.884,329.260 351.196 C 329.935 350.457,330.307 349.693,330.169 349.332 C 330.001 348.895,330.088 348.815,330.470 349.051 C 330.859 349.291,330.937 349.204,330.755 348.730 C 330.617 348.371,330.704 347.954,330.948 347.803 C 331.234 347.627,331.287 347.729,331.096 348.090 C 330.933 348.399,331.161 348.207,331.602 347.664 C 332.044 347.120,332.317 346.534,332.210 346.360 C 332.103 346.187,332.577 345.484,333.263 344.798 C 333.960 344.100,334.414 343.300,334.293 342.983 C 334.155 342.624,334.245 342.521,334.538 342.702 C 334.858 342.900,334.912 342.756,334.712 342.236 C 334.553 341.822,334.554 341.614,334.714 341.774 C 335.147 342.206,336.432 340.043,336.161 339.338 C 335.995 338.905,336.082 338.825,336.464 339.061 C 336.853 339.301,336.931 339.214,336.749 338.740 C 336.611 338.381,336.698 337.964,336.942 337.813 C 337.211 337.647,337.274 337.721,337.101 338.000 C 336.944 338.254,336.912 338.462,337.029 338.462 C 337.406 338.462,338.439 336.174,338.179 335.915 C 338.041 335.777,338.133 335.664,338.382 335.664 C 338.641 335.664,338.727 335.379,338.581 334.999 C 338.415 334.566,338.482 334.431,338.773 334.611 C 339.265 334.915,340.124 333.578,340.267 332.285 C 340.423 330.875,340.451 330.816,340.842 331.058 C 341.343 331.368,342.573 328.981,342.212 328.398 C 342.030 328.103,342.116 328.061,342.464 328.276 C 342.851 328.515,342.922 328.419,342.730 327.917 C 342.585 327.540,342.624 327.328,342.815 327.447 C 343.128 327.640,344.165 325.685,344.286 324.675 C 344.312 324.456,344.361 324.040,344.395 323.753 C 344.428 323.465,344.614 323.328,344.809 323.448 C 345.224 323.704,346.297 321.326,346.121 320.539 C 346.045 320.200,346.184 320.113,346.495 320.305 C 346.842 320.520,346.911 320.407,346.726 319.925 C 346.581 319.548,346.620 319.336,346.811 319.455 C 347.223 319.709,348.294 317.325,348.119 316.543 C 348.043 316.204,348.182 316.117,348.493 316.309 C 348.840 316.524,348.909 316.411,348.724 315.929 C 348.579 315.552,348.609 315.335,348.790 315.447 C 349.286 315.753,350.468 313.001,350.172 312.229 C 349.983 311.737,350.057 311.646,350.450 311.888 C 350.844 312.132,350.916 312.039,350.722 311.533 C 350.577 311.156,350.607 310.939,350.788 311.051 C 351.284 311.358,352.466 308.605,352.170 307.834 C 351.981 307.341,352.055 307.250,352.448 307.493 C 352.842 307.736,352.914 307.643,352.720 307.138 C 352.575 306.761,352.620 306.553,352.820 306.676 C 353.211 306.918,354.272 304.220,354.109 303.397 C 354.055 303.122,354.193 302.897,354.415 302.897 C 354.638 302.897,354.705 302.598,354.565 302.232 C 354.409 301.827,354.470 301.666,354.721 301.821 C 355.251 302.149,356.478 299.056,356.154 298.211 C 356.002 297.815,356.070 297.671,356.333 297.834 C 356.818 298.134,358.185 295.061,357.826 294.479 C 357.699 294.274,357.780 294.106,358.006 294.106 C 358.232 294.106,358.302 293.807,358.161 293.441 C 357.980 292.968,358.054 292.867,358.416 293.091 C 358.799 293.328,358.855 293.181,358.641 292.507 C 358.458 291.931,358.503 291.699,358.766 291.862 C 359.249 292.160,360.215 289.529,360.114 288.190 C 360.076 287.683,360.209 287.370,360.409 287.494 C 360.854 287.769,362.210 283.872,362.113 282.595 C 362.069 282.015,362.206 281.775,362.483 281.946 C 362.781 282.130,362.831 281.929,362.637 281.319 C 362.457 280.749,362.500 280.511,362.757 280.670 C 363.303 281.007,364.432 277.595,364.141 276.483 C 363.972 275.836,364.046 275.683,364.415 275.912 C 364.792 276.144,364.848 275.995,364.635 275.325 C 364.452 274.747,364.497 274.516,364.761 274.679 C 365.268 274.993,366.470 271.090,366.136 270.218 C 365.967 269.780,366.051 269.694,366.424 269.924 C 366.831 270.176,366.888 270.002,366.676 269.157 C 366.509 268.492,366.552 268.158,366.786 268.302 C 367.294 268.617,368.413 264.751,368.128 263.662 C 367.989 263.128,368.061 262.908,368.324 263.070 C 368.866 263.405,370.442 257.676,370.133 256.494 C 369.990 255.947,370.059 255.715,370.316 255.874 C 370.792 256.168,372.205 251.559,371.826 250.946 C 371.691 250.728,371.767 250.549,371.994 250.549 C 372.245 250.549,372.308 250.053,372.155 249.289 C 371.990 248.463,372.046 248.116,372.318 248.284 C 372.786 248.573,374.190 243.546,373.813 242.935 C 373.684 242.727,373.765 242.557,373.992 242.557 C 374.243 242.557,374.306 242.061,374.153 241.297 C 373.987 240.462,374.043 240.123,374.321 240.295 C 374.814 240.599,376.239 235.237,375.838 234.588 C 375.695 234.356,375.782 234.166,376.032 234.166 C 376.334 234.166,376.395 233.745,376.213 232.917 C 376.009 231.989,376.063 231.745,376.424 231.968 C 376.785 232.192,376.841 231.924,376.642 230.919 C 376.477 230.086,376.512 229.767,376.732 230.085 C 377.151 230.689,378.232 226.437,377.826 225.780 C 377.688 225.557,377.774 225.375,378.017 225.375 C 378.304 225.375,378.371 224.853,378.210 223.876 C 378.015 222.699,378.061 222.506,378.422 222.977 C 378.781 223.446,378.828 223.230,378.636 221.978 C 378.487 220.998,378.529 220.583,378.746 220.905 C 379.129 221.473,380.183 217.171,379.809 216.566 C 379.698 216.386,379.796 216.123,380.026 215.980 C 380.270 215.829,380.343 215.112,380.202 214.255 C 380.013 213.110,380.060 212.919,380.413 213.387 C 380.764 213.851,380.816 213.581,380.644 212.188 C 380.502 211.037,380.544 210.676,380.759 211.184 C 381.194 212.210,382.444 205.764,382.153 203.996 C 382.026 203.229,382.084 202.978,382.312 203.300 C 382.735 203.897,384.240 196.490,383.831 195.827 C 383.687 195.595,383.768 195.405,384.011 195.405 C 384.302 195.405,384.359 194.909,384.179 193.948 C 383.967 192.820,384.020 192.563,384.416 192.807 C 384.812 193.052,384.866 192.775,384.656 191.566 C 384.499 190.661,384.530 190.223,384.730 190.519 C 385.154 191.146,386.136 186.197,385.774 185.254 C 385.639 184.903,385.730 184.615,385.976 184.615 C 386.273 184.615,386.343 184.044,386.186 182.917 C 386.040 181.869,386.087 181.412,386.308 181.723 C 386.782 182.390,388.042 175.241,387.728 173.667 C 387.558 172.815,387.626 172.589,387.985 172.810 C 388.357 173.040,388.411 172.649,388.214 171.172 C 388.053 169.965,388.093 169.427,388.319 169.749 C 388.802 170.439,390.020 162.919,389.722 161.082 C 389.561 160.082,389.630 159.805,389.987 160.026 C 390.353 160.252,390.408 159.853,390.212 158.384 C 390.053 157.190,390.092 156.641,390.314 156.958 C 390.782 157.624,392.011 148.973,391.715 147.096 C 391.557 146.093,391.628 145.819,391.989 146.042 C 392.361 146.272,392.420 145.789,392.240 144.001 C 392.067 142.288,392.112 141.873,392.407 142.458 C 392.703 143.044,392.764 142.512,392.635 140.460 C 392.534 138.840,392.583 138.167,392.752 138.861 C 393.136 140.439,394.020 132.779,393.715 130.515 C 393.567 129.414,393.639 129.044,393.961 129.243 C 394.292 129.448,394.362 128.727,394.217 126.600 C 394.072 124.475,394.123 123.949,394.403 124.675 C 394.687 125.412,394.746 124.887,394.627 122.677 C 394.537 120.991,394.591 120.204,394.752 120.879 C 395.147 122.532,396.000 112.895,395.742 109.690 C 395.600 107.915,395.661 107.448,395.979 107.892 C 396.292 108.329,396.358 107.408,396.220 104.496 C 396.090 101.732,396.145 100.869,396.397 101.698 C 396.648 102.519,396.720 101.258,396.626 97.702 C 396.547 94.733,396.603 93.449,396.757 94.705 C 396.976 96.498,397.089 95.724,397.369 90.509 C 398.048 77.890,397.687 63.822,396.760 66.733 C 396.566 67.342,396.523 66.795,396.650 65.335 C 396.811 63.478,396.755 63.072,396.399 63.536 C 396.040 64.004,395.992 63.757,396.181 62.408 C 396.358 61.144,396.297 60.758,395.955 60.969 C 395.623 61.174,395.554 60.923,395.715 60.099 C 396.030 58.489,395.242 54.858,394.737 55.592 C 394.483 55.961,394.445 55.697,394.624 54.795 C 394.827 53.769,394.771 53.520,394.390 53.756 C 394.016 53.987,393.956 53.798,394.155 53.007 C 394.325 52.331,394.258 51.948,393.971 51.948 C 393.723 51.948,393.622 51.686,393.745 51.365 C 394.063 50.535,392.611 46.402,392.268 47.160 C 392.115 47.498,392.071 47.366,392.166 46.853 C 392.258 46.359,392.162 45.954,391.953 45.954 C 391.744 45.954,391.619 45.729,391.674 45.455 C 391.850 44.577,391.200 42.716,390.802 42.961 C 390.589 43.093,390.524 42.923,390.657 42.578 C 390.788 42.237,390.701 41.958,390.465 41.958 C 390.228 41.958,390.150 41.659,390.290 41.293 C 390.468 40.829,390.396 40.721,390.051 40.934 C 389.742 41.125,389.596 41.037,389.662 40.699 C 389.826 39.857,389.195 38.325,388.787 38.576 C 388.585 38.701,388.539 38.495,388.684 38.117 C 388.874 37.620,388.804 37.520,388.428 37.752 C 388.077 37.969,387.972 37.893,388.104 37.518 C 388.356 36.807,386.943 33.966,386.339 33.966 C 386.087 33.966,385.993 33.853,386.131 33.716 C 386.547 33.300,385.222 31.117,384.736 31.417 C 384.467 31.584,384.404 31.510,384.577 31.231 C 384.734 30.977,384.661 30.769,384.416 30.769 C 384.170 30.769,384.080 30.589,384.216 30.370 C 384.352 30.150,384.272 29.970,384.040 29.970 C 383.807 29.970,383.660 29.835,383.713 29.670 C 383.881 29.150,382.561 27.564,382.218 27.875 C 382.037 28.038,382.001 27.976,382.137 27.737 C 382.488 27.121,381.262 25.505,380.692 25.832 C 380.432 25.980,380.349 25.959,380.508 25.783 C 380.824 25.433,379.345 23.135,378.899 23.284 C 378.746 23.335,378.621 23.261,378.621 23.119 C 378.621 22.618,377.121 21.212,376.676 21.295 C 376.427 21.341,376.266 21.162,376.317 20.898 C 376.407 20.440,371.675 15.920,371.010 15.828 C 370.834 15.804,370.184 15.278,369.566 14.659 C 368.924 14.017,368.240 13.657,367.975 13.822 C 367.663 14.014,367.617 13.934,367.836 13.580 C 368.075 13.193,367.979 13.121,367.477 13.314 C 367.100 13.459,366.889 13.419,367.009 13.226 C 367.293 12.766,365.329 11.483,364.821 11.797 C 364.606 11.930,364.319 11.751,364.185 11.399 C 363.900 10.658,361.860 9.502,361.489 9.873 C 361.351 10.011,361.239 9.917,361.239 9.665 C 361.239 9.086,358.411 7.643,357.742 7.881 C 357.468 7.979,357.243 7.869,357.243 7.638 C 357.243 7.407,356.944 7.333,356.578 7.473 C 356.164 7.632,356.011 7.569,356.173 7.307 C 356.444 6.869,354.447 5.861,353.308 5.861 C 352.950 5.861,352.403 5.607,352.093 5.297 C 351.783 4.987,351.196 4.820,350.789 4.927 C 350.382 5.033,350.132 4.985,350.234 4.820 C 350.512 4.371,347.780 3.638,346.791 3.897 C 346.244 4.039,346.024 3.968,346.189 3.702 C 346.485 3.222,341.141 1.777,340.510 2.167 C 340.293 2.301,340.005 2.232,339.870 2.015 C 339.731 1.790,338.812 1.715,337.745 1.841 C 336.306 2.012,336.005 1.959,336.464 1.618 C 336.916 1.281,336.329 1.219,334.066 1.363 C 332.027 1.493,331.516 1.450,332.468 1.229 C 333.364 1.021,331.357 0.902,326.873 0.899 C 322.451 0.896,320.321 1.016,321.079 1.227 M81.618 2.273 C 82.003 2.374,82.632 2.374,83.017 2.273 C 83.402 2.173,83.087 2.091,82.318 2.091 C 81.548 2.091,81.234 2.173,81.618 2.273 M92.807 2.273 C 93.192 2.374,93.821 2.374,94.206 2.273 C 94.590 2.173,94.276 2.091,93.506 2.091 C 92.737 2.091,92.423 2.173,92.807 2.273 M87.413 38.251 C 88.127 38.340,89.296 38.340,90.010 38.251 C 90.724 38.162,90.140 38.090,88.711 38.090 C 87.283 38.090,86.698 38.162,87.413 38.251 M92.607 38.251 C 93.322 38.340,94.491 38.340,95.205 38.251 C 95.919 38.162,95.335 38.090,93.906 38.090 C 92.478 38.090,91.893 38.162,92.607 38.251 M174.226 38.087 C 174.226 38.156,174.810 38.740,175.524 39.386 L 176.823 40.559 175.650 39.261 C 174.555 38.050,174.226 37.778,174.226 38.087 M190.609 52.695 C 190.609 53.243,191.711 54.027,191.947 53.646 C 192.062 53.459,191.808 53.089,191.383 52.824 C 190.957 52.558,190.609 52.500,190.609 52.695 M192.450 53.837 C 192.106 54.181,193.840 55.970,194.264 55.708 C 194.452 55.592,194.605 55.349,194.605 55.167 C 194.605 54.690,192.745 53.542,192.450 53.837 M213.287 61.015 C 212.902 61.115,212.273 61.115,211.888 61.015 C 211.503 60.914,211.818 60.832,212.587 60.832 C 213.357 60.832,213.671 60.914,213.287 61.015 M2.911 86.114 C 2.914 87.213,2.992 87.615,3.084 87.007 C 3.176 86.400,3.173 85.501,3.078 85.009 C 2.984 84.518,2.908 85.015,2.911 86.114 M40.479 88.312 C 40.479 89.520,40.554 90.015,40.646 89.411 C 40.737 88.806,40.737 87.817,40.646 87.213 C 40.554 86.608,40.479 87.103,40.479 88.312 M40.483 102.498 C 40.486 103.816,40.560 104.307,40.649 103.589 C 40.738 102.871,40.736 101.792,40.645 101.192 C 40.554 100.591,40.481 101.179,40.483 102.498 M2.911 104.096 C 2.914 105.195,2.992 105.597,3.084 104.990 C 3.176 104.382,3.173 103.483,3.078 102.992 C 2.984 102.500,2.908 102.997,2.911 104.096 M195.804 194.006 C 194.834 194.995,194.129 195.804,194.239 195.804 C 194.349 195.804,195.233 194.995,196.204 194.006 C 197.174 193.017,197.879 192.208,197.769 192.208 C 197.659 192.208,196.775 193.017,195.804 194.006 M139.261 373.626 C 140.119 374.505,140.911 375.225,141.021 375.225 C 141.131 375.225,140.519 374.505,139.660 373.626 C 138.802 372.747,138.010 372.028,137.900 372.028 C 137.790 372.028,138.402 372.747,139.261 373.626 M120.080 382.418 C 121.385 383.736,122.542 384.815,122.652 384.815 C 122.762 384.815,121.784 383.736,120.480 382.418 C 119.175 381.099,118.017 380.020,117.907 380.020 C 117.797 380.020,118.775 381.099,120.080 382.418 M167.011 389.510 L 165.634 391.009 167.133 389.632 C 168.528 388.350,168.815 388.012,168.510 388.012 C 168.443 388.012,167.769 388.686,167.011 389.510"/><path id="path4" fill="#d3c5dc" fill-rule="evenodd" stroke="none" d="M320.380 0.682 C 320.874 0.777,321.683 0.777,322.178 0.682 C 322.672 0.586,322.268 0.508,321.279 0.508 C 320.290 0.508,319.885 0.586,320.380 0.682 M331.568 0.682 C 332.063 0.777,332.872 0.777,333.367 0.682 C 333.861 0.586,333.457 0.508,332.468 0.508 C 331.479 0.508,331.074 0.586,331.568 0.682 M316.983 1.075 C 317.368 1.175,317.997 1.175,318.382 1.075 C 318.766 0.974,318.452 0.892,317.682 0.892 C 316.913 0.892,316.598 0.974,316.983 1.075 M86.214 1.891 C 87.148 1.975,88.676 1.975,89.610 1.891 C 90.544 1.807,89.780 1.738,87.912 1.738 C 86.044 1.738,85.280 1.807,86.214 1.891 M96.404 2.273 C 96.788 2.374,97.418 2.374,97.802 2.273 C 98.187 2.173,97.872 2.091,97.103 2.091 C 96.334 2.091,96.019 2.173,96.404 2.273 M359.640 8.171 C 359.640 8.281,360.180 8.650,360.839 8.991 C 361.499 9.332,362.038 9.521,362.038 9.411 C 362.038 9.301,361.499 8.932,360.839 8.591 C 360.180 8.250,359.640 8.061,359.640 8.171 M372.428 16.509 C 372.428 16.577,373.012 17.162,373.726 17.807 L 375.025 18.981 373.851 17.682 C 372.757 16.472,372.428 16.200,372.428 16.509 M320.795 18.278 C 322.177 18.357,324.335 18.356,325.590 18.277 C 326.845 18.198,325.714 18.134,323.077 18.135 C 320.440 18.135,319.413 18.200,320.795 18.278 M300.799 24.205 C 299.305 25.015,299.396 25.353,300.899 24.575 C 301.558 24.234,302.098 23.870,302.098 23.766 C 302.098 23.509,302.055 23.523,300.799 24.205 M271.528 25.010 L 270.330 26.040 271.628 25.181 C 272.343 24.708,272.927 24.244,272.927 24.149 C 272.927 23.849,272.758 23.954,271.528 25.010 M296.803 26.203 C 295.309 27.013,295.400 27.351,296.903 26.573 C 297.562 26.232,298.102 25.868,298.102 25.764 C 298.102 25.507,298.059 25.521,296.803 26.203 M360.040 32.567 C 361.456 33.996,362.704 35.165,362.814 35.165 C 362.924 35.165,361.855 33.996,360.440 32.567 C 359.024 31.139,357.775 29.970,357.665 29.970 C 357.556 29.970,358.624 31.139,360.040 32.567 M172.228 35.764 C 174.307 37.852,176.098 39.560,176.208 39.560 C 176.318 39.560,174.707 37.852,172.627 35.764 C 170.548 33.676,168.757 31.968,168.647 31.968 C 168.537 31.968,170.149 33.676,172.228 35.764 M86.214 38.651 C 86.928 38.739,88.097 38.739,88.811 38.651 C 89.525 38.562,88.941 38.490,87.512 38.490 C 86.084 38.490,85.500 38.562,86.214 38.651 M93.407 38.651 C 94.121 38.739,95.290 38.739,96.004 38.651 C 96.718 38.562,96.134 38.490,94.705 38.490 C 93.277 38.490,92.692 38.562,93.407 38.651 M188.611 51.274 C 188.611 51.343,189.193 51.927,189.904 52.573 C 190.615 53.218,190.884 53.372,190.502 52.915 C 190.121 52.457,189.944 51.934,190.109 51.752 C 190.274 51.569,190.185 51.550,189.910 51.708 C 189.635 51.866,189.411 51.805,189.411 51.572 C 189.411 51.339,189.231 51.149,189.011 51.149 C 188.791 51.149,188.611 51.205,188.611 51.274 M211.688 60.222 C 212.183 60.317,212.992 60.317,213.487 60.222 C 213.981 60.127,213.576 60.049,212.587 60.049 C 211.598 60.049,211.194 60.127,211.688 60.222 M153.047 62.937 C 154.241 64.146,155.307 65.135,155.417 65.135 C 155.527 65.135,154.640 64.146,153.447 62.937 C 152.253 61.728,151.186 60.739,151.076 60.739 C 150.966 60.739,151.853 61.728,153.047 62.937 M375.317 67.133 C 375.317 67.902,375.400 68.217,375.500 67.832 C 375.601 67.448,375.601 66.818,375.500 66.434 C 375.400 66.049,375.317 66.364,375.317 67.133 M375.744 71.928 C 375.744 73.137,375.819 73.631,375.911 73.027 C 376.002 72.423,376.002 71.434,375.911 70.829 C 375.819 70.225,375.744 70.719,375.744 71.928 M397.695 71.129 C 397.695 71.898,397.777 72.213,397.878 71.828 C 397.978 71.444,397.978 70.814,397.878 70.430 C 397.777 70.045,397.695 70.360,397.695 71.129 M375.733 78.721 C 375.733 79.710,375.811 80.115,375.906 79.620 C 376.002 79.126,376.002 78.317,375.906 77.822 C 375.811 77.328,375.733 77.732,375.733 78.721 M2.898 81.718 C 2.902 82.597,2.984 82.910,3.080 82.413 C 3.175 81.916,3.172 81.197,3.072 80.815 C 2.972 80.432,2.894 80.839,2.898 81.718 M375.339 84.116 C 375.342 85.215,375.420 85.617,375.512 85.009 C 375.603 84.402,375.601 83.503,375.506 83.011 C 375.411 82.520,375.336 83.017,375.339 84.116 M397.726 86.114 C 397.728 87.433,397.803 87.924,397.892 87.206 C 397.981 86.487,397.979 85.408,397.888 84.808 C 397.797 84.208,397.724 84.795,397.726 86.114 M40.860 86.913 C 40.864 87.792,40.946 88.105,41.042 87.608 C 41.137 87.111,41.134 86.391,41.034 86.009 C 40.934 85.627,40.856 86.034,40.860 86.913 M2.512 87.712 C 2.515 88.811,2.592 89.213,2.684 88.606 C 2.776 87.998,2.774 87.099,2.679 86.608 C 2.584 86.116,2.509 86.613,2.512 87.712 M374.939 88.911 C 374.942 90.010,375.020 90.412,375.112 89.805 C 375.204 89.197,375.201 88.298,375.106 87.807 C 375.012 87.315,374.936 87.812,374.939 88.911 M374.526 94.106 C 374.531 94.985,374.613 95.298,374.708 94.801 C 374.804 94.303,374.800 93.584,374.700 93.202 C 374.600 92.820,374.522 93.227,374.526 94.106 M397.323 94.705 C 397.323 95.914,397.397 96.409,397.489 95.804 C 397.581 95.200,397.581 94.211,397.489 93.606 C 397.397 93.002,397.323 93.497,397.323 94.705 M396.927 101.299 C 396.929 102.617,397.004 103.109,397.093 102.390 C 397.182 101.672,397.180 100.593,397.089 99.993 C 396.998 99.392,396.925 99.980,396.927 101.299 M2.517 102.298 C 2.517 103.506,2.592 104.001,2.684 103.397 C 2.775 102.792,2.775 101.803,2.684 101.199 C 2.592 100.594,2.517 101.089,2.517 102.298 M40.874 104.496 C 40.877 105.594,40.954 105.997,41.046 105.389 C 41.138 104.782,41.135 103.883,41.041 103.391 C 40.946 102.900,40.871 103.397,40.874 104.496 M396.518 106.494 C 396.521 107.592,396.598 107.995,396.690 107.387 C 396.782 106.780,396.780 105.881,396.685 105.389 C 396.590 104.898,396.515 105.395,396.518 106.494 M373.319 107.093 C 373.319 107.862,373.402 108.177,373.502 107.792 C 373.603 107.408,373.603 106.778,373.502 106.394 C 373.402 106.009,373.319 106.324,373.319 107.093 M2.911 108.891 C 2.914 109.990,2.992 110.392,3.084 109.785 C 3.176 109.177,3.173 108.278,3.078 107.787 C 2.984 107.295,2.908 107.792,2.911 108.891 M372.920 110.290 C 372.920 111.059,373.002 111.374,373.103 110.989 C 373.203 110.604,373.203 109.975,373.103 109.590 C 373.002 109.206,372.920 109.520,372.920 110.290 M396.105 111.289 C 396.109 112.168,396.191 112.480,396.287 111.983 C 396.382 111.486,396.379 110.767,396.279 110.385 C 396.179 110.003,396.100 110.410,396.105 111.289 M3.290 113.487 C 3.290 114.256,3.372 114.570,3.472 114.186 C 3.573 113.801,3.573 113.172,3.472 112.787 C 3.372 112.403,3.290 112.717,3.290 113.487 M394.898 124.675 C 394.898 125.445,394.980 125.759,395.081 125.375 C 395.181 124.990,395.181 124.361,395.081 123.976 C 394.980 123.591,394.898 123.906,394.898 124.675 M394.498 128.272 C 394.498 129.041,394.581 129.356,394.681 128.971 C 394.782 128.586,394.782 127.957,394.681 127.572 C 394.581 127.188,394.498 127.502,394.498 128.272 M213.101 133.267 C 213.104 134.366,213.182 134.768,213.274 134.160 C 213.366 133.553,213.363 132.654,213.268 132.162 C 213.173 131.671,213.098 132.168,213.101 133.267 M392.900 142.258 C 392.900 143.027,392.982 143.342,393.083 142.957 C 393.183 142.572,393.183 141.943,393.083 141.558 C 392.982 141.174,392.900 141.489,392.900 142.258 M213.101 147.253 C 213.104 148.352,213.182 148.754,213.274 148.146 C 213.366 147.539,213.363 146.640,213.268 146.148 C 213.173 145.657,213.098 146.154,213.101 147.253 M123.988 176.518 C 125.039 176.601,126.657 176.600,127.584 176.516 C 128.512 176.432,127.652 176.364,125.674 176.366 C 123.696 176.367,122.937 176.435,123.988 176.518 M116.188 184.498 C 116.686 184.594,117.405 184.590,117.787 184.490 C 118.169 184.390,117.762 184.312,116.883 184.317 C 116.004 184.321,115.691 184.403,116.188 184.498 M91.797 199.405 C 91.035 200.296,90.893 200.780,91.506 200.401 C 91.898 200.159,92.854 198.601,92.610 198.601 C 92.542 198.601,92.176 198.963,91.797 199.405 M285.491 229.957 C 285.064 230.280,284.887 230.550,285.096 230.557 C 285.306 230.564,284.767 231.334,283.899 232.268 C 282.913 233.330,283.182 233.148,284.618 231.782 C 285.880 230.581,286.913 229.547,286.913 229.484 C 286.913 229.188,286.190 229.429,285.491 229.957 M279.707 236.464 L 277.522 238.761 279.820 236.577 C 281.955 234.548,282.301 234.166,282.004 234.166 C 281.942 234.166,280.908 235.200,279.707 236.464 M267.126 245.055 L 262.737 249.550 267.233 245.162 C 269.705 242.748,271.728 240.725,271.728 240.666 C 271.728 240.378,271.203 240.879,267.126 245.055 M269.331 248.951 C 268.861 249.610,268.567 250.150,268.677 250.150 C 268.787 250.150,269.261 249.610,269.730 248.951 C 270.200 248.292,270.494 247.752,270.384 247.752 C 270.274 247.752,269.800 248.292,269.331 248.951 M259.540 264.535 C 259.200 265.195,259.010 265.734,259.120 265.734 C 259.230 265.734,259.599 265.195,259.940 264.535 C 260.281 263.876,260.470 263.337,260.360 263.337 C 260.250 263.337,259.881 263.876,259.540 264.535 M362.882 281.763 C 362.635 282.469,362.504 283.117,362.589 283.202 C 362.675 283.288,362.946 282.780,363.192 282.073 C 363.439 281.367,363.570 280.720,363.485 280.634 C 363.399 280.549,363.128 281.056,362.882 281.763 M197.816 281.692 C 197.305 282.647,197.287 283.035,197.768 282.738 C 197.969 282.614,198.225 282.738,198.336 283.014 C 198.447 283.291,198.553 282.932,198.570 282.218 C 198.606 280.731,198.406 280.591,197.816 281.692 M197.495 289.311 C 197.495 290.080,197.578 290.395,197.678 290.010 C 197.779 289.625,197.779 288.996,197.678 288.611 C 197.578 288.227,197.495 288.541,197.495 289.311 M243.849 316.084 C 243.849 316.853,243.931 317.168,244.032 316.783 C 244.132 316.399,244.132 315.769,244.032 315.385 C 243.931 315.000,243.849 315.315,243.849 316.084 M243.465 320.480 C 243.465 321.469,243.543 321.873,243.639 321.379 C 243.734 320.884,243.734 320.075,243.639 319.580 C 243.543 319.086,243.465 319.491,243.465 320.480 M243.081 325.475 C 243.083 326.793,243.158 327.284,243.247 326.566 C 243.336 325.848,243.334 324.769,243.243 324.169 C 243.151 323.568,243.079 324.156,243.081 325.475 M228.296 335.065 C 228.298 336.384,228.372 336.875,228.461 336.157 C 228.550 335.438,228.549 334.360,228.457 333.759 C 228.366 333.159,228.293 333.746,228.296 335.065 M243.077 338.861 C 243.077 340.070,243.152 340.564,243.243 339.960 C 243.335 339.356,243.335 338.367,243.243 337.762 C 243.152 337.158,243.077 337.652,243.077 338.861 M243.457 343.057 C 243.462 343.936,243.544 344.249,243.639 343.752 C 243.735 343.255,243.731 342.535,243.631 342.153 C 243.531 341.771,243.453 342.178,243.457 343.057 M228.292 346.853 C 228.292 348.062,228.366 348.556,228.458 347.952 C 228.550 347.348,228.550 346.359,228.458 345.754 C 228.366 345.150,228.292 345.644,228.292 346.853 M293.082 362.937 L 291.908 364.236 293.207 363.062 C 293.921 362.417,294.505 361.832,294.505 361.763 C 294.505 361.455,294.176 361.726,293.082 362.937 M314.267 370.929 L 312.687 372.627 314.386 371.048 C 315.320 370.179,316.084 369.415,316.084 369.349 C 316.084 369.047,315.736 369.350,314.267 370.929 M139.261 373.227 C 140.566 374.545,141.723 375.624,141.833 375.624 C 141.943 375.624,140.965 374.545,139.660 373.227 C 138.355 371.908,137.198 370.829,137.088 370.829 C 136.978 370.829,137.956 371.908,139.261 373.227 M265.642 377.512 C 266.360 377.601,267.439 377.599,268.039 377.508 C 268.640 377.417,268.052 377.344,266.733 377.347 C 265.415 377.349,264.923 377.423,265.642 377.512 M305.673 379.520 L 304.296 381.019 305.794 379.642 C 307.189 378.360,307.476 378.022,307.171 378.022 C 307.105 378.022,306.430 378.696,305.673 379.520 M297.103 386.249 L 295.904 387.279 297.203 386.419 C 297.917 385.947,298.501 385.482,298.501 385.387 C 298.501 385.088,298.332 385.192,297.103 386.249 M244.555 387.413 C 245.301 388.182,246.001 388.811,246.111 388.811 C 246.221 388.811,245.701 388.182,244.955 387.413 C 244.209 386.643,243.510 386.014,243.400 386.014 C 243.290 386.014,243.810 386.643,244.555 387.413 M267.433 396.679 C 267.817 396.780,268.447 396.780,268.831 396.679 C 269.216 396.579,268.901 396.496,268.132 396.496 C 267.363 396.496,267.048 396.579,267.433 396.679 M147.552 397.094 C 148.377 397.181,149.725 397.181,150.549 397.094 C 151.374 397.008,150.699 396.938,149.051 396.938 C 147.403 396.938,146.728 397.008,147.552 397.094"/></g></svg>