<svg xmlns="http://www.w3.org/2000/svg" xmlns:xlink="http://www.w3.org/1999/xlink" id="body_1" viewBox="0.12 35.65 133.02 64.55">

<defs>
        <clipPath id="1">

            <path clip-rule="evenodd" d="M305 250.17578L571 250.17578L571 559.9258L305 559.9258L305 250.17578z"/>        </clipPath>
</defs>

<g transform="matrix(0.20938948 0 0 0.20938948 -18.007496 -16.891668)">
    <path d="M164.89062 348.4297C 169.75 344.77734 175.53125 344.66016 181.03125 344.0664C 190.67578 343.04297 199.59375 344.7461 207.02734 350.6797C 209.32422 352.51562 210.66016 355.29297 210.67578 358.23438C 210.72656 367.1289 211.91797 387.90625 211.91797 396.33984L211.91797 396.33984L158.03906 396.33984C 158.03906 382.8164 159.04688 369.64062 159.19531 356.48047C 159.22656 352.6953 162.0664 350.5625 164.89062 348.4297" stroke="none" fill="#100F0D" fill-rule="nonzero"/>
    <path d="M217.54688 425.1211C 195.33203 425.1211 174.07422 425.1211 152.02734 425.1211C 152.02734 419.0703 152.02734 413.30078 152.02734 407.16797C 174.35547 407.16797 195.4336 407.16797 217.91016 407.16797C 217.91016 407.16797 217.69922 422.1289 217.54688 425.1211" stroke="none" fill="#100F0D" fill-rule="nonzero"/>
    <path d="M215.9961 453.66797L153.95703 453.33984C 153.95703 447.28906 153.95703 441.38672 153.95703 435.38672C 174.78516 435.38672 195.33203 435.38672 215.9961 435.38672C 215.9961 441.55078 215.9961 447.46875 215.9961 453.66797" stroke="none" fill="#100F0D" fill-rule="nonzero"/>
    <path d="M214.41016 464.01953C 214.6914 471.92188 214.77344 473.27734 214.04688 481.90625C 194.7539 481.90625 175.4961 481.90625 155.8086 481.90625C 155.16406 475.9375 155.2461 470.08594 155.59375 463.76953C 175.39844 463.88672 194.9375 462.6797 214.41016 464.01953" stroke="none" fill="#100F0D" fill-rule="nonzero"/>
    <path d="M209.91797 510.8672C 192.72266 510.8672 176.15625 510.8672 159.45703 510.8672C 158.83203 504.85156 158.21875 499.14844 157.57422 493.09766C 175.97656 493.09766 194.09375 493.09766 212.36328 493.09766C 211.5039 499.34766 210.69531 505.16406 209.91797 510.8672" stroke="none" fill="#100F0D" fill-rule="nonzero"/>
    <path d="M203.34375 531.08594C 202.4375 534.90625 201.54297 538.70703 200.63672 542.5586C 200.42188 543.51953 199.5625 544.1953 198.58594 544.1953C 198.4375 544.1953 198.30469 544.1953 198.17578 544.1953C 197.97656 544.23047 197.76172 544.2461 197.53125 544.23047C 193.35156 544.1953 189.17188 544.1953 184.97656 544.1953C 180.76562 544.1953 176.58594 544.1953 172.40625 544.23047C 172.17578 544.2461 171.96094 544.23047 171.76172 544.1953C 171.63281 544.1953 171.5 544.1953 171.35156 544.1953C 170.375 544.1953 169.51562 543.51953 169.30078 542.5586C 168.39453 538.70703 167.5039 534.90625 166.59375 531.08594C 165.66797 527.64844 164.79297 524.1914 164.13281 520.60547L164.13281 520.60547L205.80469 520.60547C 205.14453 524.1914 204.26953 527.64844 203.34375 531.08594" stroke="none" fill="#100F0D" fill-rule="nonzero"/>
    <path d="M98.46094 289.25C 107.69531 275.72656 120.72656 270.0703 135.07812 273.3789C 142.59375 275.11328 149.91016 278.45312 156.45312 282.33984C 156.55078 282.38672 156.63281 282.45312 156.73438 282.5039C 174.10938 292.78516 195.82812 292.78516 213.20312 282.5039C 213.30469 282.45312 213.40234 282.38672 213.48438 282.33984C 220.02734 278.45312 227.34375 275.11328 234.875 273.3789C 249.21094 270.0703 262.2422 275.72656 271.47656 289.25C 283.26953 306.52344 284.78906 325.60156 282.3125 345.42188C 279.63672 366.71484 272.9961 386.8164 261.76562 405.25C 257.3047 412.58984 251.34375 422.04688 242.88672 425.58203C 238.47656 427.41797 234.46094 425.59766 231.52344 422.22656C 228.03516 418.1953 226.13672 413.0703 225.34375 407.8789C 224.41797 401.96094 225.0625 395.95703 225.14453 390.0078C 225.21094 384.0078 225.0625 378.02344 224.96484 372.03906C 224.84766 364.26953 224.33594 356.46484 222.32031 348.92578C 219.89453 339.80078 214.64062 333.9336 204.86328 331.6172C 200.22266 330.51172 189.94922 329.80078 184.97656 329.35547C 179.98828 329.80078 169.71484 330.51172 165.07422 331.6172C 155.29688 333.9336 150.04297 339.80078 147.61719 348.92578C 145.61719 356.46484 145.08984 364.26953 144.97266 372.03906C 144.875 378.02344 144.72656 384.0078 144.79297 390.0078C 144.875 395.95703 145.51953 401.96094 144.59375 407.8789C 143.80078 413.0703 141.90234 418.1953 138.41406 422.22656C 135.49219 425.59766 131.46094 427.41797 127.05078 425.58203C 118.59375 422.04688 112.63281 412.58984 108.171875 405.25C 96.94141 386.8164 90.30078 366.71484 87.625 345.42188C 85.14844 325.60156 86.66797 306.52344 98.46094 289.25" stroke="none" fill="#100F0D" fill-rule="nonzero"/>
    <path d="M659.875 543.8008C 649.6172 545.8828 641.2422 540.52734 637.66016 529.0703C 650.27734 526.4258 662.7461 523.3672 674.7383 518.22656C 675.6328 532.3594 670.0664 541.71484 659.875 543.8008" stroke="none" fill="#100F0D" fill-rule="nonzero"/>
    <path d="M667.09375 483.82422C 656.6367 487.85547 645.9492 490.78125 634.58594 491.29688C 632.8203 485.7578 633.3789 480.55078 632.90234 474.79688C 649.21875 474.01953 664.5469 470.48047 679.14844 463.29297C 679.95703 478.41797 679.6133 478.96094 667.09375 483.82422" stroke="none" fill="#100F0D" fill-rule="nonzero"/>
    <path d="M669.8164 456.4297C 658.02344 461.45703 645.7539 464.48047 631.96094 464.1328C 631.41406 458.16797 630.9531 452.8086 630.40625 446.7578C 648.3633 446.7578 664.97656 442.8086 680.91797 435.66797C 682.5039 450.2461 682.03906 451.22266 669.8164 456.4297" stroke="none" fill="#100F0D" fill-rule="nonzero"/>
    <path d="M671.5039 428.5586C 658.4375 433.96484 644.84375 436.4922 629.66406 436.60938C 628.77344 426.21094 627.96484 416.58984 627.1211 406.5039L627.1211 406.5039L683.4453 406.5039C 685.52344 420.8203 684.08984 423.33594 671.5039 428.5586" stroke="none" fill="#100F0D" fill-rule="nonzero"/>
    <path d="M697.8125 392.03906C 696.6758 395.85938 693.4219 397.09766 689.53906 397.09766C 667.02734 397.05078 644.53125 397.05078 622 397.09766C 618.1367 397.09766 614.8672 395.91016 613.71094 392.07422C 610.76953 382.35156 608.14453 372.53516 605.28516 362.30078L605.28516 362.30078L706.1875 362.30078C 703.33203 372.51562 700.7539 382.3203 697.8125 392.03906" stroke="none" fill="#100F0D" fill-rule="nonzero"/>
    <path d="M657.4453 497.67578C 664.1367 495.9414 670.23047 495.29688 675.8281 491.1797C 675.91016 491.11328 676.02734 491.16406 676.0117 491.26172C 676.0117 491.26172 676.83594 496.6836 677.01953 498.15625C 677.03516 498.33594 677.0508 498.53516 677.0664 498.73438C 677.41406 502.03906 677.25 505.95703 673.78125 507.52734C 662.03906 512.8203 649.83203 516.83594 637.0469 518.4414C 636.6328 517.64453 636.2539 517.25 636.20703 516.8047C 635.7422 512.125 635.3125 507.4453 634.78516 501.9414C 635.0156 501.91016 635.23047 501.875 635.46094 501.84375C 642.84375 500.78516 650.21094 499.54297 657.4453 497.67578" stroke="none" fill="#100F0D" fill-rule="nonzero"/>
    <path d="M661.9219 288.60547C 661.9219 285.84375 664.16797 283.59375 666.9258 283.59375C 669.7031 283.59375 671.9297 285.84375 671.9297 288.60547C 671.9297 291.3828 669.7031 293.6289 666.9258 293.6289C 664.16797 293.6289 661.9219 291.3828 661.9219 288.60547zM677.97656 292.39062C 677.97656 292.04297 678.02734 291.71094 678.1094 291.36328C 678.125 291.28125 678.16016 291.23047 678.1914 291.16406C 678.1758 291.14844 678.20703 291.1328 678.20703 291.1328C 678.8867 289.09766 681.1992 288.0586 683.1797 288.90234C 688.59766 291.25 692.6758 294.98438 695.3203 300.01172C 700.52344 309.91406 698.72266 322.2461 697.2539 328.47656C 696.77344 330.5586 694.66016 331.80078 692.6289 331.22266C 692.6289 331.22266 692.6094 331.20703 692.6094 331.20703C 692.54297 331.20703 692.46094 331.17188 692.41406 331.15625L692.41406 331.15625L692.39453 331.15625C 690.5625 330.54297 689.5039 328.64453 689.9336 326.7578C 690.08203 326.1797 690.21484 325.5664 690.33203 324.89062C 691.4375 319.33594 692.2969 310.35938 688.66406 303.5C 686.8281 300.01172 684.03906 297.48047 680.20703 295.8125C 680.0586 295.7461 679.91016 295.6797 679.77734 295.57812C 678.6367 294.90234 677.97656 293.6797 677.97656 292.39062zM596.16797 271.82422C 590.1211 285.05078 589.03125 299.16797 590.0078 313.6172C 590.96484 327.6172 599.65234 338.59375 603.4531 351.375L603.4531 351.375L707.41016 351.375C 709.53906 346.4297 711.2422 341.71875 713.5547 337.3047C 724.91797 315.79688 723.58203 293.79297 715.0586 272.10547C 709.34375 257.58984 695.3047 252.8125 680.8672 258.91406C 677.64453 260.2539 674.5742 261.97266 671.4844 263.58984C 660.98047 269.07812 650.4414 269.07812 639.8867 263.72266C 636.7656 262.15234 633.72656 260.40234 630.52344 259.02734C 615.9883 252.76172 602.7422 257.45703 596.16797 271.82422" stroke="none" fill="#100F0D" fill-rule="nonzero"/>
	<g clip-path="url(#1)">
        <path d="M325.22266 306.34375C 334.78516 282.28906 357.1328 266.75 382.15625 266.75C 390.05078 266.75 397.83203 268.3047 405.29688 271.36328C 416.57812 276.0078 427.48047 278.27344 438.64453 278.27344C 449.79297 278.27344 460.6797 276.0078 471.92578 271.3789C 479.625 268.1875 487.38672 266.58203 494.98438 266.58203C 505.3086 266.58203 515.6797 269.5586 525.77344 275.4453C 550.21875 289.6797 561.73047 319.01953 553.7344 346.77734C 552.14844 352.25 549.45703 357.125 546.33594 362.7461C 545.21484 364.78125 544.15625 366.69922 543.08203 368.76562C 533.75 386.71875 529.6719 407.1836 531.27344 427.9453C 531.76953 450.19922 530.2969 468.9453 526.66406 486.94922C 522.98047 505.14844 518.28906 518.20703 511.41797 529.28516C 507.17578 536.14453 503.10938 541.1211 497.05078 543.10547C 496.23828 543.3867 495.4297 543.51953 494.65625 543.51953C 491.6328 543.51953 489.02344 541.3203 488.32812 538.1797C 488.01562 536.70703 488.1797 534.65625 488.3789 532.47656C 488.42578 532.02734 488.46094 531.5664 488.4922 531.10156C 490.60938 504.75 488.52734 481.1797 482.15234 459.02734C 477.16406 441.65234 470.8203 429.78125 461.5703 420.53906C 454.76562 413.71484 446.8203 410.09375 438.61328 410.09375C 430.55078 410.09375 422.6914 413.59766 415.90234 420.22656C 412.25 423.78125 409.09766 427.75 406.53516 432.04688C 396.97266 448.01562 391.5547 466.3672 388.9453 491.52734C 387.35938 506.73438 388.03906 521.7461 388.86328 535.7969C 389.01172 538.1289 388.41797 540.16406 387.22656 541.51953C 385.4922 543.5 382.48828 544.0469 379.41406 542.95703C 374.85547 541.33594 371.33984 537.21875 369.09375 534.2617C 359.48047 521.59766 354.90234 506.0078 352.01172 493.82422C 347.17578 473.5586 345.1914 451.8828 345.95312 427.5664C 346.16797 420.9375 346.23438 413.08594 345.29297 405.08203C 343.52344 390.3203 338.45312 376.15234 328.83984 359.125C 319.39062 342.39844 318.13672 324.14453 325.22266 306.34375zM311.73047 300.22656C 302.72656 322.83984 304.29688 346 316.28906 367.21094C 324.79297 382.26953 329.2539 394.5703 330.73828 407.0664C 331.5664 413.96094 331.48438 421.03516 331.30078 427.0547C 330.4922 452.85938 332.6211 475.96875 337.79297 497.67578C 341.07812 511.41406 346.29688 529.08594 357.71094 544.1133C 361.11328 548.59375 366.58203 554.8906 374.78906 557.8008C 377.35156 558.6953 379.96094 559.15625 382.53516 559.15625C 388.51562 559.15625 393.98438 556.71094 397.91406 552.23047C 401.91016 547.6992 403.89453 541.5 403.4961 534.8242C 402.72266 521.4492 402.0586 507.21484 403.51172 493.2461C 405.85938 470.59766 410.6172 454.3164 418.89062 440.46094C 420.77344 437.3203 423.08594 434.41016 425.79688 431.76562C 429.83984 427.83203 434.26953 425.75 438.61328 425.75C 443.02344 425.75 447.5 427.8789 451.54688 431.94922C 458.82812 439.23828 463.94922 448.9922 468.14453 463.60547C 473.95703 483.8047 475.82422 505.46094 473.89453 529.78125C 473.85938 530.1953 473.82812 530.60547 473.77734 531.01953C 473.4961 534.1953 473.1836 537.7969 474.0586 541.75C 476.3203 552 484.79297 559.15625 494.65625 559.15625C 496.90234 559.15625 499.16406 558.79297 501.35938 558.0664C 512.23047 554.4961 518.7344 545.8672 523.66016 537.91406C 531.5703 525.1367 536.90625 510.4375 541 490.2539C 544.89844 470.9453 546.46875 450.95703 545.9219 427.35156L545.9219 427.35156L545.90625 426.92188C 544.5039 409.1328 547.9531 391.66016 555.91797 376.33594C 556.8594 374.5 557.8633 372.6836 558.9219 370.78125C 562.3906 364.51562 565.66016 358.6289 567.7422 351.375C 577.8164 316.42578 563.4297 279.5625 532.79297 261.70703C 520.51953 254.5664 507.80078 250.94531 494.98438 250.94531C 485.5703 250.94531 476.03906 252.91406 466.64062 256.78125C 457.10938 260.71484 447.9453 262.6172 438.64453 262.6172C 429.3125 262.6172 420.1289 260.71484 410.5664 256.78125C 401.41406 253.01172 391.8672 251.10938 382.15625 251.10938C 351.23828 251.10938 323.58594 270.38672 311.73047 300.22656" stroke="none" fill="#100F0D" fill-rule="nonzero"/>
	</g>
    <path d="M382.20703 284.23828C 388.1875 284.23828 394.09766 285.4297 399.76562 287.76172C 412.6797 293.0664 425.77734 295.76172 438.6797 295.76172C 451.59375 295.76172 464.67578 293.0664 477.54297 287.76172C 483.45703 285.3125 489.35156 284.07422 495.01953 284.07422C 502.84766 284.07422 510.4961 286.32422 518.40625 290.91797C 536.3281 301.3672 544.8008 322.7422 538.9844 342.91016C 537.9453 346.51172 535.6992 350.57812 533.0742 355.29297C 531.9492 357.33984 530.7617 359.47266 529.58984 361.73828C 518.85156 382.41797 514.1133 405.92578 515.84766 429.78125C 516.29297 450.4961 514.9375 467.88672 511.58594 484.45312C 509.89844 492.76562 508.01562 499.8086 505.78516 505.95703C 505.5703 506.5703 504.73047 506.40625 504.71484 505.7422C 504.1836 487.97266 501.625 471.2578 497 455.15625C 493.3828 442.57812 486.875 424.16016 472.20703 409.48047C 462.48047 399.72656 450.8672 394.5703 438.66016 394.5703C 426.65234 394.5703 415.1914 399.5625 405.4961 409.01953C 400.85547 413.54688 396.82422 418.64062 393.53906 424.14453C 379.41406 447.76953 375.40234 473.42578 373.60156 490.6836L373.60156 490.6836L372.14844 504.78516C 372.08203 505.41406 371.27344 505.52734 371.0586 504.9336C 369.63672 500.75 368.3164 496.0547 367.0625 490.73438C 362.58594 472.0039 360.75 451.83594 361.46094 429.10547C 361.6914 421.8125 361.77344 413.1328 360.6836 403.9922C 358.63672 386.83203 352.92188 370.6836 342.13672 351.58984C 335.0664 339.07422 334.22656 327.0547 339.51172 313.76562C 346.64453 295.82812 363.39453 284.23828 382.20703 284.23828" stroke="none" fill="#100F0D" fill-rule="nonzero"/>
</g>
</svg>