<svg xmlns="http://www.w3.org/2000/svg" xmlns:xlink="http://www.w3.org/1999/xlink" id="body_1" viewBox="55.6 0.12 77.5 100.02">

<defs>
        <clipPath id="1">

            <path clip-rule="evenodd" d="M502 154.6211L543 154.6211L543 196L502 196L502 154.6211z"/>        </clipPath>
</defs>

<g transform="matrix(0.19998 0 0 0.19998 13.311962 -30.79692)">
    <path d="M282.85938 369.46094C 278.10938 399.95312 265.36328 486.40234 265.36328 535.8281C 281 543.04297 307.46875 550.2578 334.21094 550.2578C 360.95312 550.2578 387.41797 543.04297 403.0625 535.8281C 403.0625 510.17188 399.71484 472.07812 395.85156 436.6328C 389.53906 438.67188 382.07812 439.73047 373.44922 439.73047C 364.32422 439.73047 356.28125 438.5547 352.29688 437.85547C 349.38672 437.34375 342.7539 434.58594 344.01953 420.08984C 344.71484 412.1211 348.3789 398.63672 357.6875 398.63672C 358.1797 398.63672 358.6797 398.6797 359.17188 398.76562C 359.26172 398.78125 359.35547 398.79688 359.4453 398.8125L359.4453 398.8125L359.0078 396.4922L358.9961 396.04688C 358.9414 393.51953 359.875 391.1211 361.6289 389.28906C 363.3828 387.46094 365.73828 386.42188 368.26172 386.3672L368.26172 386.3672L368.46875 386.3672C 373.39453 386.3672 377.52344 390.22656 377.91016 395.08203L377.91016 395.08203L378.8125 399.78906C 379.51172 399.73438 380.14062 399.66797 380.70703 399.59375C 382.17188 387.11328 384.3672 375.96094 387.2578 366.08594C 385.9336 356.16406 384.9414 349.0703 384.52344 346.13672L384.52344 346.13672L394.9336 346.13672C 399.80078 336.40625 405.71875 328.6836 412.6953 323.0703C 415.8125 320.5664 418.8789 318.6953 421.80078 317.26953L421.80078 317.26953L357.09766 317.26953C 356.98047 329.82422 350.45312 347.40234 344.39453 361.0547L344.39453 361.0547L341.48047 339.58594C 339.14062 340.46094 336.6836 340.92188 334.22266 340.92188L334.22266 340.92188L334.20703 340.92188C 331.7461 340.92188 329.28516 340.46484 326.9414 339.58594L326.9414 339.58594L324.03125 361.05078C 318 347.46875 311.51172 329.9961 311.33203 317.46094L311.33203 317.46094L302.82812 317.46094C 302.07422 317.41016 301 317.3828 299.64844 317.46094L299.64844 317.46094L299.35547 317.46094C 298.13672 317.46094 296.96094 317.6328 295.83594 317.92578C 291.1211 318.78125 284.86328 320.95312 278.32422 326.21094C 262.03906 339.30078 251.80469 365.11328 247.89844 402.94922C 245.58594 403.8164 241.39062 404.27734 236.4961 404.3086L236.4961 404.3086L236.55078 403.98047L234.76172 394.66797C 234.71484 392.4375 232.84766 390.64844 230.61719 390.69922C 228.38281 390.7461 226.59375 392.61328 226.64453 394.84375L226.64453 394.84375L228.375 403.9961C 225.71484 403.78125 223.03125 403.45703 220.47266 403.01562C 212.61719 401.64062 207.61719 430.0625 215.46875 431.4414C 219.1836 432.09766 226.92969 433.23438 235.6875 433.23438C 246.29297 433.23438 258.375 431.5664 266.5664 425.33203C 267.7578 424.42578 268.82422 423.4297 269.8125 422.38672C 272.70703 400.33984 275.58203 381.1289 277.38672 369.45703L277.38672 369.45703L282.85938 369.45703L282.85938 369.46094zM315.0703 495.01172L282.89062 490.57812L283.8789 483.4336L316.0586 487.86328zM385.53125 490.57812L353.35156 495.01172L352.3672 487.86328L384.54297 483.4336z" stroke="none" fill="#000000" fill-rule="nonzero"/>
    <path d="M285.41016 631.59375C 285.41016 643.91797 295.40234 653.90234 307.71875 653.90234C 320.03906 653.90234 330.03125 643.91797 330.03125 631.59375L330.03125 631.59375L330.03125 555.59766C 313.9453 555.16797 298.3789 552.3242 285.40625 548.70703L285.40625 548.70703L285.40625 631.59375L285.41016 631.59375z" stroke="none" fill="#000000" fill-rule="nonzero"/>
    <path d="M338.39453 631.59375C 338.39453 643.91797 348.38672 653.90234 360.70312 653.90234C 373.02344 653.90234 383.01562 643.91797 383.01562 631.59375L383.01562 631.59375L383.01562 548.70703C 370.04297 552.3242 354.48047 555.16797 338.39453 555.59766L338.39453 555.59766L338.39453 631.59375z" stroke="none" fill="#000000" fill-rule="nonzero"/>
    <path d="M334.21094 307.1836C 356.63672 307.1836 374.8125 289.01172 374.8125 266.59375C 374.8125 244.17188 356.63672 226 334.21094 226C 311.78906 226 293.60938 244.17188 293.60938 266.59375C 293.60938 289.01172 311.78906 307.1836 334.21094 307.1836zM359.53906 277.4297C 354.28906 285.9297 344.91406 291.625 334.21094 291.625C 323.5078 291.625 314.13672 285.9297 308.88672 277.4297z" stroke="none" fill="#000000" fill-rule="nonzero"/>
    <path d="M343.97266 331.97266L344.4961 331.14844L341.0664 317.6172L327.35156 317.6172L323.92578 331.14844L324.45312 331.98047C 327.27734 334.32812 330.73047 335.5078 334.21094 335.51172C 337.6875 335.5078 341.14844 334.32812 343.97266 331.97266z" stroke="none" fill="#000000" fill-rule="nonzero"/>
    <path d="M514.73047 267.6914C 514.73047 245.27344 496.5547 227.09766 474.1289 227.09766C 451.70703 227.09766 433.52734 245.27344 433.52734 267.6914C 433.52734 290.10938 451.70703 308.28516 474.1289 308.28516C 496.55078 308.28516 514.73047 290.10938 514.73047 267.6914zM448.80078 281.21094L499.45312 281.21094C 494.20312 289.70703 484.83203 295.40625 474.1289 295.40625C 463.42578 295.40625 454.05078 289.71094 448.80078 281.21094z" stroke="none" fill="#000000" fill-rule="nonzero"/>
    <path d="M590.0156 404.09766C 587.45703 404.53906 584.77344 404.8672 582.1133 405.08203L582.1133 405.08203L583.84375 395.9297C 583.8906 393.69922 582.10547 391.83203 579.8711 391.78125C 577.6406 391.73438 575.77344 393.52344 575.72656 395.7539L575.72656 395.7539L573.9375 405.0664L573.9922 405.39453C 569.09766 405.36328 564.90234 404.90234 562.58984 404.03125C 558.6836 366.19922 548.4492 340.38672 532.16406 327.29297C 520.9375 318.26953 510.5078 318.3047 507.39062 318.5625L507.39062 318.5625L440.86328 318.5625C 437.7422 318.3047 427.3164 318.26953 416.08984 327.29297C 399.80078 340.38672 389.5703 366.19922 385.66406 404.03125C 383.34766 404.90234 379.15625 405.35938 374.26172 405.39453L374.26172 405.39453L374.3125 405.0664L372.52734 395.7539C 372.47656 393.52344 370.61328 391.73438 368.3789 391.78125C 366.14844 391.83203 364.35938 393.69922 364.41016 395.9297L364.41016 395.9297L366.14062 405.08203C 363.47656 404.8672 360.79688 404.53906 358.23828 404.09766C 350.3828 402.72266 345.3828 431.14453 353.23438 432.52734C 356.94922 433.1797 364.6953 434.3203 373.44922 434.3203C 384.0547 434.3203 396.14062 432.64844 404.32812 426.41797C 410.10547 422.02344 413.51562 415.96094 414.1953 408.8828C 416.39844 385.95312 420.7539 371.13672 425.3203 361.80078L425.3203 361.80078L425.3203 441.84375L409.9297 630.53516C 408.92578 642.8164 418.07422 653.58203 430.35156 654.5781C 442.6328 655.5781 453.40234 646.4453 454.40234 634.16406L454.40234 634.16406L467.8086 469.83594L480.4453 469.83594L493.84766 634.16406C 494.84766 646.4453 505.6172 655.58203 517.89844 654.5781C 530.1758 653.5781 539.3242 642.8164 538.3203 630.53516L538.3203 630.53516L522.9297 441.84375L522.9297 361.80078C 527.4961 371.13672 531.85547 385.95312 534.0547 408.8828C 534.7344 415.96094 538.14844 422.02344 543.9219 426.41797C 552.1133 432.64844 564.1953 434.3203 574.8008 434.3203C 583.5586 434.3203 591.3047 433.1797 595.0156 432.52734C 602.8711 431.14453 597.8711 402.72266 590.0156 404.09766z" stroke="none" fill="#000000" fill-rule="nonzero"/>
	<g clip-path="url(#1)">
        <path d="M522.83984 154.6211L522.1914 154.6211C 520.9883 169.04297 516.6836 173.34766 502.26172 174.55078L502.26172 174.55078L502.26172 175.19922C 516.6836 176.39844 520.9922 180.70703 522.1914 195.125L522.1914 195.125L522.83984 195.125C 524.04297 180.70703 528.34766 176.39844 542.76953 175.19922L542.76953 175.19922L542.76953 174.55078C 528.34766 173.34766 524.04297 169.04297 522.83984 154.6211z" stroke="none" fill="#000000" fill-rule="nonzero"/>
	</g>
    <path d="M530.0156 261.59375L530.0156 262.15625C 542.40625 263.1836 546.10547 266.88672 547.1367 279.26953L547.1367 279.26953L547.6953 279.26953C 548.72656 266.88672 552.4258 263.1836 564.8125 262.15625L564.8125 262.15625L564.8125 261.59375C 552.4258 260.5664 548.72266 256.86328 547.6953 244.48047L547.6953 244.48047L547.1367 244.48047C 546.10547 256.86328 542.40625 260.5664 530.0156 261.59375z" stroke="none" fill="#000000" fill-rule="nonzero"/>
    <path d="M569.41797 232.52344L570.16406 232.52344C 571.54297 215.96484 576.4922 211.01562 593.0547 209.64062L593.0547 209.64062L593.0547 208.89062C 576.4922 207.51562 571.54297 202.5664 570.16406 186.0039L570.16406 186.0039L569.41797 186.0039C 568.03906 202.5664 563.08984 207.51562 546.52734 208.89062L546.52734 208.89062L546.52734 209.64062C 563.08984 211.01562 568.03906 215.96484 569.41797 232.52344z" stroke="none" fill="#000000" fill-rule="nonzero"/>
</g>
</svg>