<svg xmlns="http://www.w3.org/2000/svg" xmlns:xlink="http://www.w3.org/1999/xlink" id="body_1" viewBox="0.07 8.63 133.02 91.47">

<defs>
        <clipPath id="1">

            <path clip-rule="evenodd" d="M266 428L544 428L544 606.4258L266 606.4258L266 428z"/>        </clipPath>
</defs>

<g transform="matrix(0.22795442 0 0 0.22795442 -25.758848 -38.19052)">
    <path d="M379.15625 534.5508C 379.15625 535.16016 379.1289 535.76953 379.0664 536.375C 379.0078 536.98047 378.91797 537.58594 378.80078 538.1836C 378.6797 538.78125 378.53125 539.3711 378.35547 539.95703C 378.1797 540.53906 377.97266 541.1133 377.73828 541.6797C 377.5078 542.2422 377.2461 542.79297 376.95703 543.33203C 376.67188 543.8672 376.35938 544.3906 376.01953 544.89844C 375.6797 545.40625 375.3164 545.89453 374.9297 546.3672C 374.54297 546.83984 374.1328 547.28906 373.70312 547.72266C 373.26953 548.15234 372.8203 548.5625 372.34766 548.9492C 371.875 549.33594 371.38672 549.6992 370.8789 550.03906C 370.3711 550.375 369.85156 550.6914 369.3125 550.97656C 368.77344 551.2656 368.22266 551.52734 367.66016 551.7578C 367.09766 551.9922 366.52344 552.1992 365.9375 552.375C 365.35547 552.5508 364.76172 552.6992 364.16406 552.8203C 363.5664 552.9375 362.96484 553.02734 362.35547 553.08594C 361.75 553.14844 361.14062 553.1758 360.53125 553.1758C 359.92188 553.1758 359.3125 553.14844 358.70703 553.08594C 358.09766 553.02734 357.4961 552.9375 356.89844 552.8203C 356.30078 552.6992 355.70703 552.5508 355.125 552.375C 354.53906 552.1992 353.96875 551.9922 353.40234 551.7578C 352.83984 551.52734 352.28906 551.2656 351.75 550.97656C 351.21094 550.6914 350.6914 550.375 350.1836 550.03906C 349.67578 549.6992 349.1875 549.33594 348.71484 548.9492C 348.2422 548.5625 347.79297 548.15234 347.35938 547.72266C 346.9297 547.28906 346.51953 546.83984 346.1328 546.3672C 345.7461 545.89453 345.3828 545.40625 345.04297 544.89844C 344.70312 544.3906 344.39062 543.8672 344.10547 543.33203C 343.8164 542.79297 343.5547 542.2422 343.32422 541.6797C 343.08984 541.1133 342.8828 540.53906 342.70703 539.95703C 342.53125 539.3711 342.3828 538.78125 342.26172 538.1836C 342.14453 537.58594 342.0547 536.98047 341.9961 536.375C 341.9336 535.76953 341.90625 535.16016 341.90625 534.5508C 341.90625 533.9375 341.9336 533.33203 341.9961 532.72266C 342.0547 532.1172 342.14453 531.5117 342.26172 530.91406C 342.3828 530.3164 342.53125 529.72656 342.70703 529.1406C 342.8828 528.5586 343.08984 527.9844 343.32422 527.4219C 343.5547 526.85547 343.8164 526.3047 344.10547 525.7656C 344.39062 525.23047 344.70312 524.70703 345.04297 524.1992C 345.3828 523.6914 345.7461 523.2031 346.1328 522.73047C 346.51953 522.2578 346.9297 521.8086 347.35938 521.375C 347.79297 520.9453 348.2422 520.53516 348.71484 520.14844C 349.1875 519.7617 349.67578 519.39844 350.1836 519.0586C 350.6914 518.72266 351.21094 518.40625 351.75 518.1211C 352.28906 517.83203 352.83984 517.5703 353.40234 517.33984C 353.96875 517.10547 354.53906 516.89844 355.125 516.72266C 355.70703 516.5469 356.30078 516.39844 356.89844 516.27734C 357.4961 516.16016 358.09766 516.0703 358.70703 516.0117C 359.3125 515.9492 359.92188 515.9219 360.53125 515.9219C 361.14062 515.9219 361.75 515.9492 362.35547 516.0117C 362.96484 516.0703 363.5664 516.16016 364.16406 516.27734C 364.76172 516.39844 365.35547 516.5469 365.9375 516.72266C 366.52344 516.89844 367.09766 517.10547 367.66016 517.33984C 368.22266 517.5703 368.77344 517.83203 369.3125 518.1211C 369.85156 518.40625 370.3711 518.72266 370.8789 519.0586C 371.38672 519.39844 371.875 519.7617 372.34766 520.14844C 372.8203 520.53516 373.26953 520.9453 373.70312 521.375C 374.1328 521.8086 374.54297 522.2578 374.9297 522.73047C 375.3164 523.2031 375.6797 523.6914 376.01953 524.1992C 376.35938 524.70703 376.67188 525.23047 376.95703 525.7656C 377.2461 526.3047 377.5078 526.85547 377.73828 527.4219C 377.97266 527.9844 378.1797 528.5586 378.35547 529.1406C 378.53125 529.72656 378.6797 530.3164 378.80078 530.91406C 378.91797 531.5117 379.0078 532.1172 379.0664 532.72266C 379.1289 533.33203 379.15625 533.9375 379.15625 534.5508z" stroke="none" fill="#000000" fill-rule="nonzero"/>
    <path d="M478.34375 314.84766L480.10938 305.13672C 483.90625 279 483.86328 247.39062 463.33594 237.45703C 460.28906 231.3164 451.8125 217.27734 435.17188 209.86328C 425.98828 205.97656 415.8789 204.65234 405.01953 205.84375C 388.11328 203.94531 373.01562 208.40625 361.22656 218.64844C 353.28125 225.53516 348.6914 233.34766 346.6172 237.5C 343.5703 239.04297 340.78906 241.2539 338.3164 244.07812C 330.46094 253.52734 328.8711 266.15234 328.07422 278.07422C 327.32422 289.15234 331.21094 313.39062 331.21094 313.39062L331.21094 313.39062L331.5625 314.84766C 325.60156 317.89453 322.64453 324.78125 324.45703 331.27344L324.45703 331.27344L326.8828 339.92578C 328.5625 346.15234 333.15234 348.625 337.96484 351.22656L337.96484 351.22656L339.5078 352.19922C 346.96875 381.64844 372.8828 409.90234 405.0625 409.90234C 437.11328 409.90234 463.0703 381.64844 470.53125 352.33203L470.53125 352.33203L472.07812 351.35938C 476.97656 348.80078 481.48047 346.28516 483.2461 340.10156L483.2461 340.10156L485.67188 331.40625C 487.48438 324.8711 484.4375 317.89453 478.34375 314.84766zM475.07812 328.4922L472.6953 337.14453C 472.47266 337.89453 467.83984 340.89844 464.04297 343.23828C 461.26172 345.0039 459.1875 347.6953 458.2578 350.875C 451.46094 374.58203 430.26953 397.67188 405.0625 397.67188C 379.8125 397.67188 358.66797 374.67188 351.8711 350.91797C 350.89844 347.65234 348.73438 344.8711 345.77734 343.10547C 342.15625 340.9414 337.78906 338.16016 337.39062 336.96875L337.39062 336.96875L334.91797 328.3164C 334.51953 326.76953 335.22656 325.22266 336.6836 324.51953L336.6836 324.51953L340.2578 322.70703C 342.46484 321.60547 343.66016 319.04297 343.1289 316.61328L343.1289 316.61328L341.71484 310.125C 373.01562 307.2539 417.8203 287.34375 431.9922 277.10156C 434.8164 275.16016 436.6289 273.52344 436.58203 272.42188C 436.58203 272.3789 436.67188 272.3789 436.67188 272.42188C 438.17188 275.73438 452.78516 307.16797 469.03125 304.78125L469.03125 304.78125L466.91016 317.01172C 466.46875 319.39844 467.66016 321.73828 469.82422 322.8828L469.82422 322.8828L473.4453 324.6953C 474.8125 325.35547 475.5625 326.9453 475.07812 328.4922z" stroke="none" fill="#000000" fill-rule="nonzero"/>
	<g clip-path="url(#1)">
        <path d="M517.45703 606.6328L292.6289 606.6328C 277.21875 606.6328 265.16797 593.3008 266.7578 577.98047L266.7578 577.98047L276.3828 483.27734C 276.91016 477.98047 279.42578 473.03516 283.35547 469.41797L283.35547 469.41797L293.19922 460.5C 295.40625 483.23438 304.3711 507.07422 326.75 522.2617C 325.3828 526.10547 324.54297 530.2539 324.54297 534.53516C 324.54297 554.40234 340.69922 570.51953 360.52344 570.51953C 380.38672 570.51953 396.5 554.40234 396.5 534.53516C 396.5 514.71484 380.38672 498.5547 360.52344 498.5547C 351.29688 498.5547 342.86328 502.1328 336.46484 507.8711C 313.33203 492.2422 309.22656 465.39844 310.01953 445.22266L310.01953 445.22266L318.3203 437.67188C 322.29297 434.05078 327.5 432.02344 332.88672 432.02344L332.88672 432.02344L364.40625 432.02344L394.33594 456.4375L398.53125 437.3203L390.8047 437.3203C 388.46484 437.3203 386.61328 435.46484 386.61328 433.125C 386.61328 430.78516 388.46484 428.88672 390.8047 428.88672L390.8047 428.88672L419.27734 428.88672C 421.57422 428.88672 423.47266 430.78516 423.47266 433.125C 423.47266 435.46484 421.57422 437.3203 419.27734 437.3203L419.27734 437.3203L411.5547 437.3203L415.7461 456.4375L445.67578 432.02344L477.1953 432.02344C 482.58203 432.02344 487.79297 434.05078 491.76562 437.67188L491.76562 437.67188L495.38672 440.9414C 494.54688 458.46875 487.6172 480.6289 461.48047 494.1836L461.48047 494.1836L450.09375 499.1289C 446.91406 500.4961 444.83984 503.6328 444.83984 507.07422L444.83984 507.07422L444.83984 521.16016C 435.92188 524.64844 429.60938 533.3008 429.60938 543.41016L429.60938 543.41016L429.60938 564.4258L445.8086 564.4258L445.8086 553.16797L442.58594 553.16797L442.58594 543.41016C 442.58594 537.40625 447.48828 532.5039 453.53516 532.5039C 459.53906 532.5039 464.4375 537.40625 464.4375 543.41016L464.4375 543.41016L464.4375 553.16797L461.26172 553.16797L461.26172 564.4258L477.46094 564.4258L477.46094 543.41016C 477.46094 533.3008 471.10547 524.64844 462.1875 521.16016L462.1875 521.16016L462.1875 512.76953L468.67578 509.98828C 468.85547 509.90234 469.03125 509.8125 469.20703 509.72266C 495.1211 496.39062 506.8164 475.375 510.92188 455.0664L510.92188 455.0664L526.72656 469.41797C 530.6992 473.03516 533.1719 477.98047 533.7031 483.27734L533.7031 483.27734L543.3711 577.98047C 544.91406 593.3008 532.90625 606.6328 517.45703 606.6328z" stroke="none" fill="#000000" fill-rule="nonzero"/>
	</g>
    <path d="M645.6992 354.53906L647.0664 346.90234C 650.0703 326.46094 650.02344 301.64844 633.91016 293.8789C 631.52734 289.0664 624.90625 278.07422 611.8828 272.2461C 604.64453 269.19922 596.7422 268.1836 588.22266 269.10938C 574.97656 267.60938 563.14844 271.09766 553.9219 279.1328C 547.6953 284.5625 544.1211 290.65625 542.4883 293.92188C 540.0586 295.11328 537.89453 296.83594 535.9531 299.08594C 529.77344 306.46094 528.53906 316.35156 527.96484 325.71094C 527.34766 334.36328 530.3906 353.39062 530.3906 353.39062L530.3906 353.39062L530.65625 354.4961C 525.97656 356.92188 523.6797 362.3086 525.09375 367.38672L525.09375 367.38672L526.9922 374.1875C 528.3164 379.04297 531.8906 380.98438 535.6875 383.01562L535.6875 383.01562L536.8828 383.8125C 542.7539 406.85547 563.0156 429.01953 588.2656 429.01953C 613.3828 429.01953 633.7344 406.85547 639.60547 383.89844L639.60547 383.89844L640.7969 383.14844C 644.6406 381.1172 648.1719 379.17578 649.53906 374.3203L649.53906 374.3203L651.4375 367.51953C 652.85156 362.35547 650.46484 356.92188 645.6992 354.53906zM643.1367 365.22266L641.28516 371.98047C 641.10547 372.59766 637.4414 374.9375 634.4844 376.78906C 632.27734 378.16016 630.6875 380.23438 629.9375 382.75C 624.6406 401.33594 608.04297 419.4375 588.2656 419.4375C 568.4883 419.4375 551.8906 401.42578 546.59375 382.79688C 545.84375 380.23438 544.1211 378.0703 541.8242 376.66016C 539 374.98047 535.5547 372.77344 535.2461 371.89062L535.2461 371.89062L533.3047 365.08984C 532.9961 363.89844 533.5703 362.66406 534.6719 362.08984L534.6719 362.08984L537.4531 360.67578C 539.22266 359.79297 540.14844 357.8047 539.75 355.90625L539.75 355.90625L538.60156 350.83203C 563.14844 348.57812 598.28516 332.94922 609.41016 324.91406C 611.5742 323.41406 612.9883 322.1328 612.9883 321.25L612.9883 321.25L613.03125 321.25C 614.22266 323.89844 625.65625 348.4922 638.3711 346.63672L638.3711 346.63672L636.7383 356.21875C 636.3828 358.1172 637.3125 359.92578 639.03125 360.8086L639.03125 360.8086L641.8594 362.22266C 642.91797 362.75 643.4922 363.98828 643.1367 365.22266z" stroke="none" fill="#000000" fill-rule="nonzero"/>
    <path d="M696.6406 560.71875C 697.8789 572.76953 688.4297 583.1875 676.3789 583.1875L676.3789 583.1875L554.8047 583.1875C 554.9375 581.0703 554.9375 578.9492 554.71484 576.83203L554.71484 576.83203L545.0469 482.1328C 544.2539 474.0078 540.45703 466.5039 534.41016 460.98438L534.41016 460.98438L521.8281 449.55078C 524.6953 447.47266 528.1406 446.3711 531.71484 446.3711L531.71484 446.3711L556.39453 446.3711L579.8789 465.48828L582.39453 450.51953L577.09766 450.51953C 575.28516 450.51953 573.83203 449.01953 573.83203 447.21094C 573.83203 445.39844 575.28516 443.89844 577.09766 443.89844L577.09766 443.89844L599.3906 443.89844C 601.2461 443.89844 602.6992 445.39844 602.6992 447.21094C 602.6992 449.01953 601.2461 450.51953 599.3906 450.51953L599.3906 450.51953L594.1367 450.51953L596.65234 465.48828L620.09375 446.3711L644.8164 446.3711C 649.0078 446.3711 653.1133 447.91406 656.2031 450.78516L656.2031 450.78516L659.03125 453.34766C 658.41016 467.07812 652.98047 484.42578 632.5 495.0664L632.5 495.0664L623.53906 498.95312C 621.0664 500.01172 619.4336 502.48438 619.4336 505.17578L619.4336 505.17578L619.4336 516.21484C 612.45703 518.90625 607.5117 525.70703 607.5117 533.65234L607.5117 533.65234L607.5117 551.40234L620.3594 551.40234L620.3594 542.1758L617.66797 542.1758L617.66797 533.65234C 617.66797 528.9297 621.5508 525.08984 626.23047 525.08984C 630.9531 525.08984 634.79297 528.9297 634.79297 533.65234L634.79297 533.65234L634.79297 542.1758L632.14453 542.1758L632.14453 551.40234L644.9922 551.40234L644.9922 533.65234C 644.9922 525.70703 640.0469 518.90625 633.02734 516.21484L633.02734 516.21484L633.02734 509.63672L638.10547 507.47266C 638.2383 507.38672 638.3711 507.33984 638.5039 507.2539C 658.85156 496.78906 667.9922 480.3203 671.21484 464.42578L671.21484 464.42578L683.6172 475.6836C 686.70703 478.46875 688.65234 482.35156 689.09375 486.5039L689.09375 486.5039L696.6406 560.71875z" stroke="none" fill="#000000" fill-rule="nonzero"/>
    <path d="M279.29688 354.53906L280.66406 346.90234C 283.6211 326.46094 283.6211 301.64844 267.5078 293.8789C 265.125 289.0664 258.5039 278.07422 245.4375 272.2461C 238.24219 269.19922 230.29297 268.1836 221.82031 269.10938C 208.57422 267.60938 196.7461 271.09766 187.47266 279.1328C 181.29297 284.5625 177.67188 290.65625 176.03906 293.92188C 173.65625 295.11328 171.49219 296.83594 169.55078 299.08594C 163.3711 306.46094 162.13281 316.35156 161.51562 325.71094C 160.9414 334.36328 163.98828 353.39062 163.98828 353.39062L163.98828 353.39062L164.2539 354.4961C 159.57422 356.92188 157.23438 362.3086 158.64844 367.38672L158.64844 367.38672L160.54688 374.1875C 161.8711 379.04297 165.48828 380.98438 169.28516 383.01562L169.28516 383.01562L170.47656 383.8125C 176.34766 406.85547 196.61328 429.01953 221.86328 429.01953C 246.98047 429.01953 267.28906 406.85547 273.16016 383.89844L273.16016 383.89844L274.39453 383.14844C 278.1914 381.1172 281.72266 379.17578 283.13672 374.3203L283.13672 374.3203L285.03516 367.51953C 286.4453 362.35547 284.0625 356.92188 279.29688 354.53906zM276.73438 365.22266L274.8828 371.98047C 274.66016 372.59766 271.03906 374.9375 268.08203 376.78906C 265.875 378.16016 264.2422 380.23438 263.53516 382.75C 258.23828 401.33594 241.59375 419.4375 221.86328 419.4375C 202.08594 419.4375 185.48828 401.42578 180.14453 382.79688C 179.39453 380.23438 177.71875 378.0703 175.3789 376.66016C 172.55469 374.98047 169.10938 372.77344 168.84375 371.89062L168.84375 371.89062L166.90234 365.08984C 166.55078 363.89844 167.1211 362.66406 168.26953 362.08984L168.26953 362.08984L171.05078 360.67578C 172.8164 359.79297 173.7461 357.8047 173.30469 355.90625L173.30469 355.90625L172.19922 350.83203C 196.7461 348.57812 231.83984 332.94922 242.96484 324.91406C 245.17188 323.41406 246.58203 322.1328 246.53906 321.25C 246.53906 321.20703 246.6289 321.20703 246.6289 321.25C 247.77734 323.89844 259.2539 348.4922 271.96875 346.63672L271.96875 346.63672L270.28906 356.21875C 269.98047 358.1172 270.90625 359.92578 272.58594 360.8086L272.58594 360.8086L275.45312 362.22266C 276.51562 362.75 277.08984 363.98828 276.73438 365.22266z" stroke="none" fill="#000000" fill-rule="nonzero"/>
    <path d="M201.54688 526.6992C 201.54688 527.65625 201.45312 528.60547 201.26562 529.5469C 201.07812 530.4883 200.80078 531.39844 200.4336 532.28516C 200.07031 533.1719 199.61719 534.0117 199.08594 534.8086C 198.55469 535.60547 197.94922 536.34375 197.26953 537.02344C 196.59375 537.6992 195.85547 538.3047 195.0586 538.83594C 194.26172 539.3711 193.42188 539.8203 192.53516 540.1875C 191.64844 540.5547 190.73828 540.83203 189.79688 541.0156C 188.85547 541.2031 187.90625 541.2969 186.94922 541.2969C 185.99219 541.2969 185.04297 541.2031 184.10156 541.0156C 183.16016 540.83203 182.25 540.5547 181.36328 540.1875C 180.47656 539.8203 179.63672 539.3711 178.83984 538.83594C 178.04297 538.3047 177.30469 537.6992 176.6289 537.02344C 175.94922 536.34375 175.34375 535.60547 174.8125 534.8086C 174.28125 534.0117 173.83203 533.1719 173.46484 532.28516C 173.09766 531.39844 172.82031 530.4883 172.63281 529.5469C 172.44531 528.60547 172.35156 527.65625 172.35156 526.6992C 172.35156 525.7422 172.44531 524.79297 172.63281 523.85156C 172.82031 522.91016 173.09766 522 173.46484 521.1133C 173.83203 520.22656 174.28125 519.3867 174.8125 518.58984C 175.34375 517.79297 175.94922 517.0547 176.6289 516.375C 177.30469 515.6992 178.04297 515.09375 178.83984 514.5625C 179.63672 514.02734 180.47656 513.5781 181.36328 513.21094C 182.25 512.84375 183.16016 512.5664 184.10156 512.3828C 185.04297 512.1953 185.99219 512.10156 186.94922 512.10156C 187.90625 512.10156 188.85547 512.1953 189.79688 512.3828C 190.73828 512.5664 191.64844 512.84375 192.53516 513.21094C 193.42188 513.5781 194.26172 514.02734 195.0586 514.5625C 195.85547 515.09375 196.59375 515.6992 197.26953 516.375C 197.94922 517.0547 198.55469 517.79297 199.08594 518.58984C 199.61719 519.3867 200.07031 520.22656 200.4336 521.1133C 200.80078 522 201.07812 522.91016 201.26562 523.85156C 201.45312 524.79297 201.54688 525.7422 201.54688 526.6992z" stroke="none" fill="#000000" fill-rule="nonzero"/>
    <path d="M278.3672 446.3711L253.6914 446.3711L230.25 465.48828L227.67578 450.51953L232.5 450.51953C 234.3125 450.51953 235.8125 449.01953 235.8125 447.21094C 235.8125 445.39844 234.3125 443.89844 232.5 443.89844L232.5 443.89844L211.17969 443.89844C 209.3711 443.89844 207.86719 445.39844 207.86719 447.21094C 207.86719 449.01953 209.3711 450.51953 211.17969 450.51953L211.17969 450.51953L216.00781 450.51953L213.42969 465.48828L189.99219 446.3711L165.3125 446.3711C 161.07422 446.3711 157.01562 447.91406 153.8789 450.78516L153.8789 450.78516L147.34766 456.70312C 146.77344 472.5078 149.94922 493.52344 168.09375 505.79688C 173.08203 501.29297 179.70312 498.51172 186.94531 498.51172C 202.48438 498.51172 215.15234 511.13672 215.15234 526.6797C 215.15234 542.2617 202.48438 554.8906 186.94531 554.8906C 171.40625 554.8906 158.78125 542.2617 158.78125 526.6797C 158.78125 523.3242 159.39844 520.10156 160.5 517.09766C 142.9336 505.17578 135.91406 486.5039 134.1914 468.66406L134.1914 468.66406L126.46484 475.6836C 123.375 478.46875 121.43359 482.35156 120.99219 486.5039L120.99219 486.5039L113.44141 560.71875C 112.20703 572.76953 121.65234 583.1875 133.75 583.1875L133.75 583.1875L255.28125 583.1875C 255.14844 581.0703 255.1914 578.9492 255.36719 576.83203L255.36719 576.83203L263.625 496.125L265.03516 482.1328C 265.875 474.0078 269.6289 466.5039 275.67578 460.98438L275.67578 460.98438L288.2578 449.55078C 285.38672 447.47266 281.9453 446.3711 278.3672 446.3711z" stroke="none" fill="#000000" fill-rule="nonzero"/>
</g>
</svg>