<svg xmlns="http://www.w3.org/2000/svg" xmlns:xlink="http://www.w3.org/1999/xlink" id="body_1" viewBox="53.73 0.08 79.42 100.02"><defs><clipPath id="1"><path d="M207.73828 156.35156L602.2383 156.35156L602.2383 653.60156L207.73828 653.60156L207.73828 156.35156z" clip-rule="evenodd"/></clipPath></defs><g><g clip-path="url(#1)" transform="matrix(0.2012599 0 0 0.2012599 11.938155 -31.396544)"><path fill="#000" fill-rule="nonzero" stroke="none" d="M259.5625 509.375L208.89062 597.1406C 208.4414 597.91406 209.11719 598.85547 209.99219 598.6758L209.99219 598.6758L279.54688 584.6367C 280.0625 584.53516 280.5703 584.8242 280.73438 585.3242L280.73438 585.3242L303.35547 652.5781C 303.64062 653.4258 304.79297 653.53906 305.23828 652.7656L305.23828 652.7656L357.88672 561.58203C 358.23828 560.97266 357.90234 560.20703 357.21875 560.0508C 320.6836 551.625 287.76172 533.75 261.16797 509.1289C 260.67578 508.67578 259.89844 508.79297 259.5625 509.375zM376.71875 320.8203C 382.3047 312.6797 388.46484 305.07812 389.51172 300.78125L389.51172 300.78125L399.19922 260.89844C 401.6875 250.65625 412.10547 244.3125 422.34766 246.80078C 432.58594 249.28906 438.9297 259.70312 436.4414 269.9453L436.4414 269.9453L426.1836 313.44922C 425.58984 315.95703 426.35938 318.41016 428.27344 320.1328C 430.1914 321.85547 431.46484 321.58203 444.46094 321.67188L444.46094 321.67188L491.5586 321.60547C 500.20703 321.60547 504.98828 327.76172 504.94922 335.89844C 504.91406 342.45312 500.3086 348.60156 492.46094 349.95312C 491.4922 350.1172 491.27734 351.41797 492.14062 351.88672C 496.5664 354.29688 499.1289 358.57422 499.10156 364.53516C 499.0664 371.60938 493.70312 377.5078 483.71094 378.60547C 482.75 378.71094 482.4414 379.95312 483.23828 380.4961C 486.78516 382.90234 490.5625 387.1797 490.53516 393.1836C 490.4961 400.3164 485.04688 406.25 475.03125 407.28125C 474.0703 407.3789 473.7539 408.625 474.55078 409.17188C 478.16797 411.64062 482.35938 415.6953 482.32812 421.83594C 482.28906 429.71094 475.64453 436.28516 467.9453 436.3047L467.9453 436.3047L388.04688 436.51172C 385.89453 436.51172 383.8828 435.89453 382.1797 434.84375C 381.77344 434.58984 381.59375 434.11328 381.73438 433.65234C 382.41797 431.4297 382.76953 429.08594 382.76172 426.67188C 382.65625 396.83984 382.5547 367.01172 382.44922 337.1797C 382.4297 331.41016 380.29688 326.13672 376.78516 322.08594C 376.47656 321.72266 376.4453 321.21484 376.71875 320.8203zM359.57812 435.42188L337.57812 435.47656C 332.8047 435.48828 328.90234 431.60938 328.88672 426.83594C 328.78125 397.0078 328.6797 367.17578 328.57812 337.34766C 328.5586 332.52344 332.40234 328.65625 337.22656 328.64453L337.22656 328.64453L359.22656 328.58984C 364 328.57812 367.90234 332.46094 367.91797 337.23047C 368.02344 367.0625 368.125 396.89062 368.23047 426.72266C 368.23828 429.11328 367.39062 431.17188 365.70703 432.8672C 364.01953 434.5586 361.96484 435.41797 359.57812 435.42188zM404.98828 156.45703C 513.9258 156.45703 602.2344 244.76562 602.2344 353.69922C 602.2344 462.6328 513.9258 550.9414 404.98828 550.9414C 296.05078 550.9414 207.73828 462.6328 207.73828 353.69922C 207.73828 244.76562 296.05078 156.45703 404.98828 156.45703zM372.09375 446.29688C 372.46875 446.0547 372.9336 446.07422 373.28516 446.34375C 373.6836 446.64844 374.10156 446.9336 374.53516 447.20312C 378.60938 449.72266 383.29297 451.0586 388.08594 451.04688L388.08594 451.04688L467.96094 450.83594C 486.6172 450.78906 500.875 432.33203 495.8711 414.42578C 495.76172 414.03516 495.875 413.64844 496.17188 413.375C 503.85938 406.41016 506.7578 395.9336 504.15625 385.98828C 504.0547 385.60156 504.17188 385.21484 504.47266 384.94922C 512.9414 377.46875 515.52734 366.0586 512.35547 355.4297C 512.25 355.08203 512.3242 354.73047 512.5625 354.45312C 527.90625 336.7461 516.8203 307.04297 491.53906 307.07422L491.53906 307.07422L443.92188 307.14062C 443.2461 307.14062 442.7461 306.52344 442.90234 305.86328L442.90234 305.86328L450.58594 273.28516C 454.8203 255.32812 443.73438 237.04297 425.77344 232.67969C 407.8125 228.3164 389.4414 239.50781 385.07422 257.46875L385.07422 257.46875L375.52344 296.78906C 374.8789 299.45703 366.8047 309.57812 364.73438 312.59375C 364.46094 312.9961 364.20312 313.40625 363.97266 313.82422C 363.7539 314.21484 363.33984 314.41406 362.90234 314.34375C 361.6953 314.15234 360.45312 314.0547 359.1914 314.0586L359.1914 314.0586L337.1914 314.11328C 324.33984 314.14453 313.9961 324.54688 314.04297 337.39844C 314.14453 367.22656 314.2461 397.0586 314.35156 426.88672C 314.39453 439.67578 324.82422 450.04297 337.61328 450.01172L337.61328 450.01172L359.61328 449.95703C 364.14062 449.9453 368.41016 448.6797 372.09375 446.29688zM404.98828 206.96094C 323.9453 206.96094 258.2461 272.66016 258.2461 353.69922C 258.2461 434.73828 323.9453 500.4375 404.98828 500.4375C 486.03125 500.4375 551.73047 434.73828 551.73047 353.69922C 551.73047 272.66016 486.03125 206.96094 404.98828 206.96094zM404.98828 221.4961C 331.97266 221.4961 272.78125 280.6836 272.78125 353.69922C 272.78125 426.71094 331.96875 485.90234 404.98828 485.90234C 478.0039 485.90234 537.1953 426.71484 537.1953 353.69922C 537.1953 280.6836 478.0039 221.4961 404.98828 221.4961zM452.08984 561.58203L504.73438 652.7656C 505.1836 653.53906 506.33594 653.4258 506.6211 652.5781L506.6211 652.5781L529.2383 585.3242C 529.40625 584.8242 529.91406 584.53125 530.4258 584.6367L530.4258 584.6367L599.98047 598.6758C 600.8594 598.85547 601.53516 597.91406 601.08594 597.1406L601.08594 597.1406L550.41406 509.375C 550.0781 508.79297 549.3008 508.67578 548.8086 509.1289C 522.21484 533.7461 489.29297 551.625 452.7539 560.0508C 452.07422 560.20703 451.73828 560.97266 452.08984 561.58203z"/></g></g></svg>